<?xml version="1.0" standalone="no"?>
<!DOCTYPE svg PUBLIC "-//W3C//DTD SVG 20010904//EN"
 "http://www.w3.org/TR/2001/REC-SVG-20010904/DTD/svg10.dtd">
<svg version="1.0" xmlns="http://www.w3.org/2000/svg"
 width="920.000000pt" height="920.000000pt" viewBox="0 0 920.000000 920.000000"
 preserveAspectRatio="xMidYMid meet">
<metadata>
Created by potrace 1.14, written by Peter Selinger 2001-2017
</metadata>
<g transform="translate(0.000000,920.000000) scale(0.100000,-0.100000)"
fill="#000000" stroke="none">
<path d="M6027 9176 c-352 -147 -566 -699 -457 -1181 73 -325 311 -538 555
-497 285 47 513 361 566 778 16 131 7 335 -21 444 -52 204 -171 375 -308 442
-60 30 -76 33 -172 36 -92 2 -112 -1 -163 -22z"/>
<path d="M4805 8767 c-60 -20 -85 -35 -143 -90 -129 -122 -204 -326 -203 -552
0 -125 16 -196 65 -300 56 -120 176 -229 273 -250 20 -4 55 0 90 10 194 56
350 278 383 548 38 312 -140 620 -370 642 -33 3 -71 -1 -95 -8z"/>
<path d="M3845 8451 c-162 -41 -267 -234 -267 -491 0 -121 20 -215 64 -303
127 -254 382 -250 505 8 111 235 66 585 -95 726 -58 51 -143 76 -207 60z"/>
<path d="M3148 7960 c-119 -37 -181 -147 -181 -320 1 -206 82 -369 219 -436
45 -22 64 -26 109 -22 79 7 130 45 174 130 29 58 34 79 38 160 8 160 -34 298
-121 395 -68 76 -169 115 -238 93z"/>
<path d="M2725 7372 c-169 -106 -189 -408 -39 -559 73 -72 148 -70 224 6 65
65 94 148 94 261 -1 110 -29 186 -94 254 -43 45 -51 49 -101 53 -41 3 -61 -1
-84 -15z"/>
<path d="M5150 7070 c-343 -27 -720 -94 -1015 -180 -926 -271 -1472 -780
-1596 -1488 -14 -79 -22 -183 -26 -322 -10 -385 39 -710 162 -1070 65 -189
155 -387 370 -815 205 -407 291 -601 360 -809 102 -306 165 -657 165 -925 0
-152 18 -327 44 -437 100 -413 369 -745 714 -880 163 -65 331 -84 560 -65 671
55 1011 362 1107 997 21 139 22 378 1 504 -55 342 -194 588 -569 1005 -281
312 -409 517 -474 763 -24 88 -26 114 -27 297 -1 216 9 292 61 450 98 297 247
488 682 868 108 94 239 215 292 268 254 257 372 495 401 811 20 216 -10 397
-93 568 -35 71 -58 101 -138 180 -77 76 -114 104 -186 142 -214 110 -503 160
-795 138z"/>
</g>
</svg>
