<svg viewBox="338.817 285.0857 468.366 113.8286" width="5000" height="1215.1671983021824" xmlns="http://www.w3.org/2000/svg" xmlns:xlink="http://www.w3.org/1999/xlink" preserveAspectRatio="none"><defs></defs><style>.a5kldYRpCPfillColor {fill:#F7F7F7;fill-opacity:1;}.a5kldYRpCPstrokeColor-str {stroke:#4D4D4D;stroke-opacity:1;}.aBtaOitTENcolors-0 {fill:#F7F7F7;fill-opacity:1;}.aD6z1nYkhcolor {fill:#D73030;fill-opacity:1;}.aD6z1nYkhstrokeColor-str {stroke:#FFAE78;stroke-opacity:1;}.aIptOCySncolors-0 {fill:#FF0000;fill-opacity:1;}.ait31TO8Tl0filter-floo {flood-color:#D73030;flood-opacity:0.5;}.aNXs6bUBWecolors-0 {fill:#F7F7F7;fill-opacity:1;}.aq6WP-wJgVfillColor {fill:#F7F7F7;fill-opacity:1;}.aq6WP-wJgVstrokeColor-str {stroke:#4D4D4D;stroke-opacity:1;}</style><defs>
      <filter
        x="338.817"
        y="285.0857"
        width="468.366"
        height="23.0331"
        id="it31TO8Tl"
        filterUnits="userSpaceOnUse"
        primitiveUnits="userSpaceOnUse"
        color-interpolation-filters="sRGB">
        <feMerge><feMergeNode in="SourceGraphic" /></feMerge>
      </filter>
      <filter
        x="338.817"
        y="285.0857"
        width="468.366"
        height="113.8286"
        id="global"
        filterUnits="userSpaceOnUse"
        primitiveUnits="userSpaceOnUse"
        color-interpolation-filters="sRGB">
        <feColorMatrix
                        type="matrix"
                        values="0.3333 0.3333 0.3333 0 0 0.3333 0.3333 0.3333 0 0 0.3333 0.3333 0.3333 0 0 0 0 0 1 0"/>
      </filter></defs><g filter="url(#global)"><g opacity="1" transform="rotate(0 531.1644 346.185)">
<svg width="26.1075" height="0.5504" x="531.1644" y="346.185" version="1.1" preserveAspectRatio="none" viewBox="0 0 26.1075 0.5504">
  <rect x="0" y="0" width="26.1075" height="1" class="a5kldYRpCPfillColor a5kldYRpCPstrokeColor-str" style="stroke-width:0;" rx="0px" ry="0px" />
</svg>
</g><g opacity="1" transform="rotate(0 563.7856 339.619)">
<svg width="18.4266" height="12.5816" x="563.7856" y="339.619" version="1.1" preserveAspectRatio="none" viewBox="19.99881172180176 45.37599182128906 160.0006866455078 109.24801635742188">
  <g transform="matrix(1 0 0 1 0 0)" ><g><path d="M120.23 154.624c-6.238 0-12.903-.92-19.976-2.761a2.286 2.286 0 0 1-1.709-2.033c-1.549-19.328 2.791-34.715 12.903-45.73 12.783-13.927 35.069-21.078 66.247-21.254.665.166 1.334.296 1.768.818.439.522.622 1.212.499 1.883-5.591 30.676-16.503 51.385-32.436 61.552-7.852 5.011-16.988 7.525-27.296 7.525zm-17.236-6.797c16.793 4.065 30.936 2.514 42.066-4.589 14.356-9.157 24.399-27.914 29.879-55.776-28.387.558-48.602 7.193-60.116 19.735-8.931 9.733-12.907 23.398-11.829 40.63z" data-color="1" class="aIptOCySncolors-0"></path><path d="M79.769 154.624c-10.31 0-19.443-2.51-27.297-7.525-15.934-10.167-26.847-30.876-32.436-61.552a2.29 2.29 0 0 1 2.255-2.701h.013c31.178.177 53.468 7.329 66.249 21.254 10.107 11.015 14.449 26.402 12.898 45.73a2.286 2.286 0 0 1-1.709 2.033c-7.071 1.84-13.737 2.761-19.973 2.761zM25.063 87.462c5.48 27.861 15.523 46.619 29.875 55.776 11.136 7.108 25.279 8.65 42.063 4.589 1.084-17.232-2.891-30.897-11.822-40.63C73.667 94.655 53.45 88.02 25.063 87.462zm74.105 62.185h.043-.043z" data-color="1" class="aIptOCySncolors-0"></path><path d="M101.456 150.277c-.464 0-.929-.145-1.329-.426-15.8-11.237-24.795-24.45-26.736-39.275-2.452-18.742 6.398-40.412 26.302-64.411.869-1.052 2.659-1.052 3.528 0 19.904 23.999 28.754 45.668 26.3 64.411-1.939 14.824-10.934 28.038-26.734 39.275a2.325 2.325 0 0 1-1.331.426zm0-99.032c-17.82 22.107-25.731 41.857-23.523 58.739 1.715 13.099 9.626 24.923 23.523 35.171 13.895-10.248 21.808-22.073 23.521-35.171 2.212-16.882-5.701-36.632-23.521-58.739z" data-color="1" class="aIptOCySncolors-0"></path></g></g>
</svg>
</g><g opacity="1" transform="rotate(0 338.817 285.0857)">
<svg width="468.366" height="23.0331" x="338.817" y="285.0857" version="1.1" preserveAspectRatio="none" viewBox="1.4 -34.16 706 34.72">
  <g transform="matrix(1 0 0 1 0 0)" class="aD6z1nYkhcolor"><path id="id-D6z1nYkh25" d="M1.40-14.04L1.40-14.04Q1.40-18.56 3.48-21.84Q5.56-25.12 9.50-26.84Q13.44-28.56 19.16-28.56Q24.88-28.56 29.20-26.72L29.20-26.72L28.80-19.08L28.44-19.08Q27.28-23.12 25.08-24.84Q22.88-26.56 19.60-26.56L19.60-26.56Q15.16-26.56 12.68-23.28Q10.20-20 10.20-14.14Q10.20-8.28 12.50-4.92Q14.80-1.56 18.88-1.44L18.88-1.44Q23.60-1.44 25.72-3.68L25.72-3.68Q27.72-5.76 28.84-11.68L28.84-11.68L29.16-11.68L30.12-4.40Q27.16 0.56 18.94 0.54Q10.72 0.52 6.06-3.30Q1.40-7.12 1.40-14.04Z M57.04 0L36.56 0L36.56-0.40L37-0.40Q37.84-0.40 38.28-0.84L38.28-0.84Q39.08-1.60 39.08-2.48L39.08-2.48L39.08-21.48Q39.08-22.40 38.46-23Q37.84-23.60 37-23.60L37-23.60L36.56-23.60L36.56-24L52.16-24Q53.16-24 54.40-24.20Q55.64-24.40 56.12-24.60L56.12-24.60L56.12-17.04L55.72-17.04L55.72-17.24Q55.72-19.56 54.50-20.84Q53.28-22.12 51.04-22.16L51.04-22.16L46.92-22.16L46.92-12.76L50-12.76Q51.76-12.80 52.86-13.94Q53.96-15.08 53.96-16.88L53.96-16.88L53.96-16.96L54.36-16.96L54.36-6.64L53.96-6.64L53.96-6.80Q53.96-8.56 52.86-9.72Q51.76-10.88 50-10.88L50-10.88L46.92-10.88L46.92-1.84L50.76-1.84Q53.16-1.84 55.12-3.60Q57.08-5.36 57.80-8.40L57.80-8.40L58.16-8.40L57.04 0Z M93.44-24L93.44-23.60L92.76-23.60Q91.84-23.60 91.20-23.04Q90.56-22.48 90.56-21.64L90.56-21.64L90.56-3.88Q90.56-1.28 90.92 0.04L90.92 0.04L91.04 0.48L90.68 0.48L73.88-13.64L73.88-2.40Q73.92-1.56 74.54-0.98Q75.16-0.40 76.08-0.40L76.08-0.40L76.72-0.40L76.72 0L63.20 0L63.20-0.40L63.84-0.40Q64.76-0.40 65.40-0.98Q66.04-1.56 66.04-2.40L66.04-2.40L66.04-20.28Q66.04-22.68 65.68-24.08L65.68-24.08L65.56-24.52L65.92-24.52L82.68-10.36L82.68-21.60Q82.68-22.44 82.06-23.02Q81.44-23.60 80.52-23.60L80.52-23.60L79.84-23.60L79.84-24L93.44-24Z M122.12-24.64L122.12-17.12L121.72-17.12L121.72-17.32Q121.76-20.40 119.56-21.56L119.56-21.56Q118.52-22.16 117-22.16L117-22.16L114.04-22.16L114.04-2.48Q114.04-1.60 114.66-1Q115.28-0.40 116.16-0.40L116.16-0.40L116.56-0.40L116.56 0L103.72 0L103.72-0.40L104.12-0.40Q104.96-0.40 105.58-1Q106.20-1.60 106.20-2.48L106.20-2.48L106.20-22.16L103.28-22.16Q99.84-22.12 98.88-19.36L98.88-19.36Q98.56-18.44 98.56-17.32L98.56-17.32L98.56-17.12L98.16-17.12L98.16-24.64Q98.68-24.44 99.92-24.24Q101.16-24.04 102.16-24.04L102.16-24.04L118.12-24.04Q119.16-24.04 120.48-24.24Q121.80-24.44 122.12-24.64L122.12-24.64Z M151.16-17.40L151.16-17.40Q151.16-15.32 150.16-13.56L150.16-13.56Q149-11.52 146.04-11L146.04-11Q147.44-10.64 148.62-9.58Q149.80-8.52 150.18-7.84Q150.56-7.16 150.96-6.32L150.96-6.32Q153.32-1.72 154.68-0.84L154.68-0.84Q155.40-0.40 156.48-0.40L156.48-0.40L156.48 0L151.76 0Q147.80 0 146.60-0.52L146.60-0.52Q144.96-1.24 144.22-2.14Q143.48-3.04 142.80-4.24L142.80-4.24Q141.72-6.08 141.04-9.48L141.04-9.48Q140.64-11.28 139.72-11.76L139.72-11.76L139.72-12.08L139.92-12.08Q141.04-12.08 141.88-13.10Q142.72-14.12 142.96-16.44L142.96-16.44Q142.96-16.48 142.96-16.68L142.96-16.68Q143.16-18.48 142.64-19.66Q142.12-20.84 141.72-21.24Q141.32-21.64 140.68-21.84L140.68-21.84Q140-22.08 139.44-22.08L139.44-22.08L138.64-22.08L138.64-2.48Q138.64-1.48 139.30-0.94Q139.96-0.40 140.76-0.40L140.76-0.40L141.12-0.40L141.12 0L128.28 0L128.28-0.40L128.72-0.40Q129.56-0.40 130.16-1Q130.76-1.60 130.76-2.48L130.76-2.48L130.76-21.52Q130.76-22.40 130.18-23Q129.60-23.60 128.76-23.60L128.76-23.60L128.28-23.60L128.28-24L142.04-24Q151.16-24 151.16-17.40Z M179.44 0L158.96 0L158.96-0.40L159.40-0.40Q160.24-0.40 160.68-0.84L160.68-0.84Q161.48-1.60 161.48-2.48L161.48-2.48L161.48-21.48Q161.48-22.40 160.86-23Q160.24-23.60 159.40-23.60L159.40-23.60L158.96-23.60L158.96-24L174.56-24Q175.56-24 176.80-24.20Q178.04-24.40 178.52-24.60L178.52-24.60L178.52-17.04L178.12-17.04L178.12-17.24Q178.12-19.56 176.90-20.84Q175.68-22.12 173.44-22.16L173.44-22.16L169.32-22.16L169.32-12.76L172.40-12.76Q174.16-12.80 175.26-13.94Q176.36-15.08 176.36-16.88L176.36-16.88L176.36-16.96L176.76-16.96L176.76-6.64L176.36-6.64L176.36-6.80Q176.36-8.56 175.26-9.72Q174.16-10.88 172.40-10.88L172.40-10.88L169.32-10.88L169.32-1.84L173.16-1.84Q175.56-1.84 177.52-3.60Q179.48-5.36 180.20-8.40L180.20-8.40L180.56-8.40L179.44 0Z M240.84-19.80L240.84-19.80Q240.84-17.96 240.10-16.24Q239.36-14.52 237.96-13.36L237.96-13.36Q235.44-11.32 232.60-11.32L232.60-11.32Q229.72-11.32 227.16-13.16L227.16-13.16L227.16-13.56Q228.60-13.80 229.34-14.34Q230.08-14.88 230.52-15.32L230.52-15.32Q231.52-16.40 231.86-17.84Q232.20-19.28 232.20-19.88L232.20-19.88Q232.20-23.04 230.84-24.52Q229.48-26 227.20-26L227.20-26L225.80-26L225.80-2.92Q225.84-1.88 226.58-1.14Q227.32-0.40 228.36-0.40L228.36-0.40L228.88-0.40L228.88 0L214.52 0L214.52-0.40L215.04-0.40Q216.48-0.40 217.24-1.64L217.24-1.64Q217.60-2.24 217.60-2.92L217.60-2.92L217.60-25.32Q217.48-26.28 216.76-26.94Q216.04-27.60 215.04-27.60L215.04-27.60L214.56-27.60L214.52-28L229.76-28Q235.24-28 238.16-25.72L238.16-25.72Q240.84-23.68 240.84-19.80Z M246.88-12Q246.88-17.92 250.74-21.20Q254.60-24.48 261.46-24.48Q268.32-24.48 272.18-21.20Q276.04-17.92 276.04-12Q276.04-6.08 272.18-2.80Q268.32 0.48 261.46 0.48Q254.60 0.48 250.74-2.80Q246.88-6.08 246.88-12ZM255.04-12Q255.04-6.88 256.68-4.10Q258.32-1.32 261.44-1.32Q264.56-1.32 266.20-4.10Q267.84-6.88 267.84-11.96L267.84-11.96Q267.84-18.88 264.96-21.40L264.96-21.40Q263.52-22.68 261.44-22.68L261.44-22.68Q258.32-22.68 256.68-19.90Q255.04-17.12 255.04-12Z M305.56-20.84Q309.32-17.68 309.32-11.98Q309.32-6.28 305.56-3.14Q301.80 0 295 0L295 0L281.40 0L281.40-0.40L281.88-0.40Q282.80-0.40 283.46-1.04Q284.12-1.68 284.12-2.56L284.12-2.56L284.12-21.56Q284.04-22.44 283.40-23.02Q282.76-23.60 281.84-23.60L281.84-23.60L281.36-23.60L281.36-24L295-24Q301.80-24 305.56-20.84ZM294.24-22.20L291.96-22.20L291.96-1.84L294.24-1.84Q297.44-1.84 299.28-4.52Q301.12-7.20 301.12-12L301.12-12Q301.12-18.48 297.92-21L297.92-21Q296.36-22.20 294.24-22.20L294.24-22.20Z M332.88-28.56L332.88-28.56Q338.04-28.56 341.78-26.84Q345.52-25.12 347.52-21.82Q349.52-18.52 349.52-14L349.52-14Q349.52-7.16 345.08-3.30Q340.64 0.56 332.88 0.56Q325.12 0.56 320.70-3.30Q316.28-7.16 316.28-14Q316.28-20.84 320.70-24.70Q325.12-28.56 332.88-28.56ZM327.18-4.76Q329.24-1.44 332.90-1.44Q336.56-1.44 338.62-4.76Q340.68-8.08 340.68-14Q340.68-19.92 338.62-23.24Q336.56-26.56 332.90-26.56Q329.24-26.56 327.18-23.24Q325.12-19.92 325.12-14Q325.12-8.08 327.18-4.76Z M375.64-8.08L375.64-8.08Q375.64-3.68 372.48-1.48L372.48-1.48Q369.68 0.48 364.72 0.48L364.72 0.48Q361.76 0.48 359.78-0.18Q357.80-0.84 357.04-1.80L357.04-1.80Q356.68-2.64 356.68-3.56Q356.68-4.48 356.84-5.32L356.84-5.32Q357.28-7.44 358.24-8.64L358.24-8.64L358.48-8.64Q358.48-8.44 358.48-8.28L358.48-8.28Q358.48-5.60 360.40-3.48L360.40-3.48Q362.36-1.36 365.80-1.36L365.80-1.36Q367.84-1.36 368.88-2.28Q369.92-3.20 369.92-4.40Q369.92-5.60 368.98-6.52Q368.04-7.44 365.92-8.36L365.92-8.36L361.72-10.32Q359.16-11.40 357.96-13.48L357.96-13.48Q357.04-15.08 357.04-17L357.04-17Q357.04-17.64 357.12-18.28L357.12-18.28Q358-24.48 364.72-24.48L364.72-24.48Q366.96-24.48 370.76-24.12L370.76-24.12L373.44-24.12L372.48-18.28L372.24-18.28Q372.24-20.24 370.82-21.42Q369.40-22.60 367.28-22.60L367.28-22.60Q363.20-22.60 362.92-19.96L362.92-19.96Q362.80-18.68 363.88-17.92L363.88-17.92Q364.72-17.36 366.20-16.76L366.20-16.76L371.36-14.40Q373.48-13.48 374.56-11.84Q375.64-10.20 375.64-8.08Z M404.48-24.64L404.48-17.12L404.08-17.12L404.08-17.32Q404.12-20.40 401.92-21.56L401.92-21.56Q400.88-22.16 399.36-22.16L399.36-22.16L396.40-22.16L396.40-2.48Q396.40-1.60 397.02-1Q397.64-0.40 398.52-0.40L398.52-0.40L398.92-0.40L398.92 0L386.08 0L386.08-0.40L386.48-0.40Q387.32-0.40 387.94-1Q388.56-1.60 388.56-2.48L388.56-2.48L388.56-22.16L385.64-22.16Q382.20-22.12 381.24-19.36L381.24-19.36Q380.92-18.44 380.92-17.32L380.92-17.32L380.92-17.12L380.52-17.12L380.52-24.64Q381.04-24.44 382.28-24.24Q383.52-24.04 384.52-24.04L384.52-24.04L400.48-24.04Q401.52-24.04 402.84-24.24Q404.16-24.44 404.48-24.64L404.48-24.64Z M420.20-26.44L420.20-26.44L419.92-26.72Q420.68-28.52 422.52-30.60Q424.36-32.68 426.08-34.16L426.08-34.16Q428.64-33.08 429.52-30.16L429.52-30.16Q426.72-28.32 424.16-27.48Q421.60-26.64 420.20-26.44ZM430.68 0L410.20 0L410.20-0.40L410.64-0.40Q411.48-0.40 411.92-0.84L411.92-0.84Q412.72-1.60 412.72-2.48L412.72-2.48L412.72-21.48Q412.72-22.40 412.10-23Q411.48-23.60 410.64-23.60L410.64-23.60L410.20-23.60L410.20-24L425.80-24Q426.80-24 428.04-24.20Q429.28-24.40 429.76-24.60L429.76-24.60L429.76-17.04L429.36-17.04L429.36-17.24Q429.36-19.56 428.14-20.84Q426.92-22.12 424.68-22.16L424.68-22.16L420.56-22.16L420.56-12.76L423.64-12.76Q425.40-12.80 426.50-13.94Q427.60-15.08 427.60-16.88L427.60-16.88L427.60-16.96L428.00-16.96L428.00-6.64L427.60-6.64L427.60-6.80Q427.60-8.56 426.50-9.72Q425.40-10.88 423.64-10.88L423.64-10.88L420.56-10.88L420.56-1.84L424.40-1.84Q426.80-1.84 428.76-3.60Q430.72-5.36 431.44-8.40L431.44-8.40L431.80-8.40L430.68 0Z M438.16-12Q438.16-17.92 442.02-21.20Q445.88-24.48 452.74-24.48Q459.60-24.48 463.46-21.20Q467.32-17.92 467.32-12Q467.32-6.08 463.46-2.80Q459.60 0.48 452.74 0.48Q445.88 0.48 442.02-2.80Q438.16-6.08 438.16-12ZM446.32-12Q446.32-6.88 447.96-4.10Q449.60-1.32 452.72-1.32Q455.84-1.32 457.48-4.10Q459.12-6.88 459.12-11.96L459.12-11.96Q459.12-18.88 456.24-21.40L456.24-21.40Q454.80-22.68 452.72-22.68L452.72-22.68Q449.60-22.68 447.96-19.90Q446.32-17.12 446.32-12Z M501.72-14.04L501.72-14.04Q501.72-18.56 503.80-21.84Q505.88-25.12 509.82-26.84Q513.76-28.56 519.48-28.56Q525.20-28.56 529.52-26.72L529.52-26.72L529.12-19.08L528.76-19.08Q527.60-23.12 525.40-24.84Q523.20-26.56 519.92-26.56L519.92-26.56Q515.48-26.56 513-23.28Q510.52-20 510.52-14.14Q510.52-8.28 512.82-4.92Q515.12-1.56 519.20-1.44L519.20-1.44Q523.92-1.44 526.04-3.68L526.04-3.68Q528.04-5.76 529.16-11.68L529.16-11.68L529.48-11.68L530.44-4.40Q527.48 0.56 519.26 0.54Q511.04 0.52 506.38-3.30Q501.72-7.12 501.72-14.04Z M562.76-0.40L562.76-0.40L563.08-0.40L563.08 0L549 0L549-0.40L549.32-0.40Q550.12-0.40 550.50-0.82Q550.88-1.24 550.88-1.62Q550.88-2 550.68-2.44L550.68-2.44L549.52-5.08L542.12-5.08L540.92-2.32Q540.76-1.96 540.76-1.60Q540.76-1.24 541.14-0.82Q541.52-0.40 542.32-0.40L542.32-0.40L542.60-0.40L542.60 0L534.36 0L534.36-0.40L534.68-0.40Q535.52-0.40 536.38-0.88Q537.24-1.36 537.72-2.36L537.72-2.36L545.96-20.12Q547.92-24.40 548.04-25.44L548.04-25.44L548.36-25.44L559.64-2.44Q560.68-0.40 562.76-0.40ZM545.80-13.60L542.88-6.88L548.72-6.88L545.80-13.60Z M589.48-17.40L589.48-17.40Q589.48-15.32 588.48-13.56L588.48-13.56Q587.32-11.52 584.36-11L584.36-11Q585.76-10.64 586.94-9.58Q588.12-8.52 588.50-7.84Q588.88-7.16 589.28-6.32L589.28-6.32Q591.64-1.72 593.00-0.84L593.00-0.84Q593.72-0.40 594.80-0.40L594.80-0.40L594.80 0L590.08 0Q586.12 0 584.92-0.52L584.92-0.52Q583.28-1.24 582.54-2.14Q581.80-3.04 581.12-4.24L581.12-4.24Q580.04-6.08 579.36-9.48L579.36-9.48Q578.96-11.28 578.04-11.76L578.04-11.76L578.04-12.08L578.24-12.08Q579.36-12.08 580.20-13.10Q581.04-14.12 581.28-16.44L581.28-16.44Q581.28-16.48 581.28-16.68L581.28-16.68Q581.48-18.48 580.96-19.66Q580.44-20.84 580.04-21.24Q579.64-21.64 579.00-21.84L579.00-21.84Q578.32-22.08 577.76-22.08L577.76-22.08L576.96-22.08L576.96-2.48Q576.96-1.48 577.62-0.94Q578.28-0.40 579.08-0.40L579.08-0.40L579.44-0.40L579.44 0L566.60 0L566.60-0.40L567.04-0.40Q567.88-0.40 568.48-1Q569.08-1.60 569.08-2.48L569.08-2.48L569.08-21.52Q569.08-22.40 568.50-23Q567.92-23.60 567.08-23.60L567.08-23.60L566.60-23.60L566.60-24L580.36-24Q589.48-24 589.48-17.40Z M617.36-8.08L617.36-8.08Q617.36-3.68 614.20-1.48L614.20-1.48Q611.40 0.48 606.44 0.48L606.44 0.48Q603.48 0.48 601.50-0.18Q599.52-0.84 598.76-1.80L598.76-1.80Q598.40-2.64 598.40-3.56Q598.40-4.48 598.56-5.32L598.56-5.32Q599-7.44 599.96-8.64L599.96-8.64L600.20-8.64Q600.20-8.44 600.20-8.28L600.20-8.28Q600.20-5.60 602.12-3.48L602.12-3.48Q604.08-1.36 607.52-1.36L607.52-1.36Q609.56-1.36 610.60-2.28Q611.64-3.20 611.64-4.40Q611.64-5.60 610.70-6.52Q609.76-7.44 607.64-8.36L607.64-8.36L603.44-10.32Q600.88-11.40 599.68-13.48L599.68-13.48Q598.76-15.08 598.76-17L598.76-17Q598.76-17.64 598.84-18.28L598.84-18.28Q599.72-24.48 606.44-24.48L606.44-24.48Q608.68-24.48 612.48-24.12L612.48-24.12L615.16-24.12L614.20-18.28L613.96-18.28Q613.96-20.24 612.54-21.42Q611.12-22.60 609-22.60L609-22.60Q604.92-22.60 604.64-19.96L604.64-19.96Q604.52-18.68 605.60-17.92L605.60-17.92Q606.44-17.36 607.92-16.76L607.92-16.76L613.08-14.40Q615.20-13.48 616.28-11.84Q617.36-10.20 617.36-8.08Z M624.16-12Q624.16-17.92 628.02-21.20Q631.88-24.48 638.74-24.48Q645.60-24.48 649.46-21.20Q653.32-17.92 653.32-12Q653.32-6.08 649.46-2.80Q645.60 0.48 638.74 0.48Q631.88 0.48 628.02-2.80Q624.16-6.08 624.16-12ZM632.32-12Q632.32-6.88 633.96-4.10Q635.60-1.32 638.72-1.32Q641.84-1.32 643.48-4.10Q645.12-6.88 645.12-11.96L645.12-11.96Q645.12-18.88 642.24-21.40L642.24-21.40Q640.80-22.68 638.72-22.68L638.72-22.68Q635.60-22.68 633.96-19.90Q632.32-17.12 632.32-12Z M679.24 0L658.76 0L658.76-0.40L659.20-0.40Q660.04-0.40 660.48-0.84L660.48-0.84Q661.28-1.60 661.28-2.48L661.28-2.48L661.28-21.48Q661.28-22.40 660.66-23Q660.04-23.60 659.20-23.60L659.20-23.60L658.76-23.60L658.76-24L674.36-24Q675.36-24 676.60-24.20Q677.84-24.40 678.32-24.60L678.32-24.60L678.32-17.04L677.92-17.04L677.92-17.24Q677.92-19.56 676.70-20.84Q675.48-22.12 673.24-22.16L673.24-22.16L669.12-22.16L669.12-12.76L672.20-12.76Q673.96-12.80 675.06-13.94Q676.16-15.08 676.16-16.88L676.16-16.88L676.16-16.96L676.56-16.96L676.56-6.64L676.16-6.64L676.16-6.80Q676.16-8.56 675.06-9.72Q673.96-10.88 672.20-10.88L672.20-10.88L669.12-10.88L669.12-1.84L672.96-1.84Q675.36-1.84 677.32-3.60Q679.28-5.36 680-8.40L680-8.40L680.36-8.40L679.24 0Z M707.40-8.40L706.24 0L685.76 0L685.76-0.40L686.20-0.40Q687.04-0.40 687.66-1Q688.28-1.60 688.28-2.48L688.28-2.48L688.28-21.52Q688.28-22.40 687.66-23Q687.04-23.60 686.20-23.60L686.20-23.60L685.76-23.60L685.76-24L698.68-24L698.68-23.60L698.24-23.60Q696.84-23.60 696.32-22.36L696.32-22.36Q696.12-21.96 696.12-21.52L696.12-21.52L696.12-1.84L699.96-1.84Q702.36-1.84 704.30-3.60Q706.24-5.36 707-8.40L707-8.40L707.40-8.40Z"/></g>
</svg>
</g><g opacity="1" transform="rotate(0 588.7259 345.6346)">
<svg width="26.1075" height="0.5504" x="588.7259" y="345.6346" version="1.1" preserveAspectRatio="none" viewBox="0 0 26.1075 0.5504">
  <rect x="0" y="0" width="26.1075" height="1" class="aq6WP-wJgVfillColor aq6WP-wJgVstrokeColor-str" style="stroke-width:0;" rx="0px" ry="0px" />
</svg>
</g><g opacity="1" transform="rotate(0 427.3233 338.0589)">
<svg width="79.3512" height="60.8554" x="427.3233" y="338.0589" version="1.1" preserveAspectRatio="none" viewBox="-0.010301491245627403 -0.00002288818359375 122.50199127197266 93.94922637939452">
  <g transform="matrix(1 0 0 1 0 0)" class="aNXs6bUBWecolors-0"><title>16</title><desc>Created with Sketch.</desc><g stroke-width="1" fill-rule="evenodd"><path d="M21.4107841,12.797869 C21.9421543,13.4334295 21.8576915,14.3794138 21.222131,14.9107841 L17.958636,17.5697 L17.3605571,18.0744489 C16.9836181,18.3984661 16.6465835,18.7009851 16.3275157,19.0027998 C8.97381522,25.9171883 4.65146047,34.2586335 3.37343605,44.0972504 L2.992,47.235 L3.05415576,49.9734573 L3.078,51.256 L3.14813028,51.835625 L3.48330873,55.1125133 C3.62478269,56.4162652 3.74687357,57.2368898 3.93713211,58.1377127 C5.88991723,67.3119359 10.4501632,74.9566278 17.5923187,81.0178107 C26.223228,88.3650997 36.3192126,91.6240526 47.7681318,90.833463 C55.4406499,90.3112001 62.5273838,87.6597174 68.9666709,82.9676759 C71.6921576,80.9818194 74.0068605,78.8448061 76.0133703,76.4149043 C76.5408551,75.7761154 77.4863068,75.6858855 78.1250957,76.2133703 C78.7638846,76.7408551 78.8541145,77.6863068 78.3266297,78.3250957 C76.1535732,80.956687 73.6546544,83.2637748 70.733356,85.3923045 C63.8445592,90.4118851 56.2183706,93.2652033 47.9733345,93.8264364 C35.7500035,94.6705028 24.8804825,91.1618547 15.6494249,83.3036713 C8.00280755,76.8143798 3.09363588,68.5847567 1.00237699,58.7599637 L0.909108915,58.2993333 C0.732561987,57.3861947 0.611705905,56.4953679 0.470139552,55.1494551 L0.180046589,52.2880523 L0.0919744336,51.5491558 L0.08,51.36 L0.00911057752,47.9529577 C0.00266612783,47.6812975 -0.00361425805,47.4263087 -0.0100000003,47.1987801 C-0.0114412681,47.1236643 -0.00773690595,47.0485086 0.00158318493,46.9739479 L0.320129734,44.3459696 C1.58266931,33.5373991 6.26015322,24.3508725 14.2692002,16.8202974 C14.7088691,16.4043943 15.1750094,15.9912031 15.711414,15.5384689 L16.2177619,15.1173518 C16.8842469,14.5727366 18.7152122,13.0963552 19.297869,12.6092159 C19.9334295,12.0778457 20.8794138,12.1623085 21.4107841,12.797869 Z M26.2899521,0.00119856192 C27.3943629,0.0453749945 28.2451609,1.16907053 28.3940306,2.15170389 L29.0102413,6.44611753 L30.1199664,14.389671 C30.695669,18.4624988 31.1086582,21.2178799 31.571736,24.0226306 L31.7987318,25.378301 C32.5820773,29.9804563 32.3770478,34.1035117 31.3363574,40.7475193 L30.4689171,46.0435773 L30.2484537,47.4637031 C29.8474091,50.112419 29.4888984,52.8666359 29.0698425,56.422064 L28.4903411,61.4599512 C28.1857864,64.1306612 29.2904355,66.2629379 31.751312,67.9819358 C36.1064585,71.0364503 40.2271294,71.7286365 44.6865759,69.8839319 C48.9863194,68.105104 53.0060225,66.6744892 56.9193093,65.5673174 C61.0154818,64.4012537 65.3304473,64.5578778 69.7091674,65.9091527 L76.543186,68.1219833 C79.7976394,69.1802772 81.7239794,69.8259748 83.9683611,70.6152081 C88.7328607,72.2935054 93.3837717,72.5973689 98.0835989,71.4909684 L98.5873464,71.3670274 C102.905472,70.2595289 106.949542,70.0955801 110.975396,70.9857194 C113.278127,71.4974375 115.74198,71.2749887 118.676688,71.5236328 L119.27,71.58 L119.826222,72.9730604 C116.786698,74.1866831 113.683503,74.565289 110.72822,73.9978749 L110.326163,73.9146261 C106.948474,73.1678003 103.540422,73.2657937 99.8604773,74.1423927 L99.3328953,74.2729106 C93.8744875,75.6738327 88.4562972,75.3767655 82.9723969,73.4450587 L81.4060036,72.8999909 C79.6744364,72.3042195 77.8887807,71.7130604 75.2124929,70.8439914 L69.2619502,68.9151068 C65.2588207,67.6003535 61.3824221,67.4159853 57.7383607,68.4533439 C53.9434751,69.5270188 50.0316293,70.9192472 45.8333728,72.6560893 C40.3612495,74.9197001 35.1769696,74.0488499 30.0310206,70.4396969 C26.7157056,68.1238518 25.072648,64.9522984 25.509653,61.1201004 L26.0909795,56.0665345 C26.538375,52.2708516 26.9183034,49.3734985 27.3546956,46.540257 L27.6158099,44.8914687 L28.1775067,41.4985016 L28.3676304,40.3141568 C29.3345156,34.1477843 29.5456443,30.329449 28.9038138,26.2629837 L28.3908602,23.1533053 C27.9711559,20.534408 27.5660725,17.7772337 27.0087594,13.8108403 L25.5660684,3.54571759 L25.454,2.782 L25.3838984,2.73883405 C25.0093792,2.48252266 24.7586764,2.06151021 24.7322859,1.58466697 L24.7311986,1.44004794 C24.7643092,0.612282765 25.4621869,-0.0319120452 26.2899521,0.00119856192 Z M61.6207204,0.0839104186 L61.7592302,0.1255145 C62.5404289,0.401231713 62.9502027,1.25803141 62.6744855,2.03923018 L62.645,2.121 L62.6355242,2.74822082 C62.4805424,12.6019204 62.7189845,19.5871951 63.6265169,26.4657834 L63.7059504,27.0551798 C64.1878197,30.5510939 65.4846797,32.9123808 67.9625362,34.4793315 L68.223094,34.6386102 C68.342843,34.709371 68.4415017,34.7756383 68.5510119,34.8578154 L68.9797748,35.1973937 L70.6680402,36.4888582 C80.1515711,43.7655848 85.0278442,47.9174416 89.8830822,53.2595032 L90.7240825,54.1968038 C91.6892927,55.2892123 92.9428677,56.1805156 95.1183836,57.44003 L95.6651329,57.749301 C98.8452789,59.5155817 101.92135,60.6451255 107.904703,62.438065 L110.644857,63.254709 L111.155172,63.4104782 C113.444856,64.1139884 115.692997,64.8677143 119.8985,66.3117731 C121.517202,66.869326 122.550549,68.0599218 122.489093,69.8421424 C122.434532,71.4107809 121.652557,72.1951472 120.238861,72.8045345 L120.042177,72.8866055 C119.973799,72.9140757 119.947043,72.924825 119.78776,72.624177 L119.27,71.58 L118.712914,70.187285 L119.222165,69.9797225 C119.478822,69.8688389 119.487404,69.8385594 119.490891,69.7383066 C119.501505,69.4304892 119.399389,69.3128331 118.922858,69.148694 L114.534272,67.6547818 C112.656521,67.0251646 111.252691,66.5740374 109.775492,66.1259904 L106.535837,65.1591878 C100.328523,63.2865018 97.1705676,62.0830758 93.6184456,60.0381394 L92.8398499,59.57981 C90.9787962,58.4635206 89.7391629,57.5498917 88.685682,56.4148819 L87.6623958,55.2766711 C82.8642882,49.9989284 77.9940282,45.8761574 68.2895301,38.4455694 L67.1085627,37.5431777 L66.7483181,37.2563207 C66.7260829,37.2399271 66.7099806,37.2291157 66.696906,37.2213898 C63.1871452,35.1474402 61.3489342,31.9257481 60.7340026,27.4644789 C59.7360802,20.2123365 59.4743362,12.9793699 59.6355898,2.73106997 L59.65,1.87 C59.65,1.51938676 59.9868914,0.624228524 59.8887724,0.915924128 L59.8516985,1.02097728 L59.9000688,0.906830765 C60.2016638,0.257052844 60.9255845,-0.0891701247 61.6207204,0.0839104186 Z M40.3419544,32.4466755 C41.012055,32.9337654 41.1604145,33.8718538 40.6733245,34.5419544 C39.3297483,36.3903425 38.6468669,38.5810647 38.4622642,41.3516277 L38.442,41.708 L38.4591583,42.1011699 C38.5929043,44.4815676 39.1648755,46.5297312 40.252869,48.3138411 L40.462934,48.645284 C40.918412,49.3372603 40.7266923,50.2674559 40.034716,50.722934 C39.3427397,51.178412 38.4125441,50.9866923 37.957066,50.294716 C36.4100271,47.9444069 35.6237324,45.2630875 35.4606138,42.2098455 L35.4408027,41.7490646 L35.4417094,41.6284093 C35.6095247,38.1162744 36.4554443,35.2422827 38.2466755,32.7780456 C38.7337654,32.107945 39.6718538,31.9595855 40.3419544,32.4466755 Z M69.0540015,12.3168409 C79.7152522,19.700093 86.1192243,29.6288114 88.4753679,42.4692795 C88.6248827,43.2841026 88.0855437,44.0658531 87.2707205,44.2153679 C86.4558974,44.3648827 85.6741469,43.8255437 85.5246321,43.0107205 C83.3116697,30.9505587 77.3542659,21.7141998 67.3459985,14.7831591 C66.6649435,14.3115071 66.4951889,13.3770534 66.9668409,12.6959985 C67.4384929,12.0149435 68.3729466,11.8451889 69.0540015,12.3168409 Z" fill-rule="nonzero"></path></g></g>
</svg>
</g><g opacity="1" transform="rotate(0 661.2747 330.5221)">
<svg width="75.4484" height="65.6319" x="661.2747" y="330.5221" version="1.1" preserveAspectRatio="none" viewBox="-101.57826232910156 3825.897216796875 60191.41015625 52359.953125">
  <g transform="matrix(1 0 0 1 0 0)" class="aBtaOitTENcolors-0"><defs></defs><g><path class="fil0" d="M20159.68 17074.06c11.71,-13.53 24.45,-26.42 38.2,-38.53 1.8,-1.58 3.29,-2.98 4.97,-4.68 1058.82,-1069.16 2014.59,-2108.77 2293.7,-2678.07 137.67,-280.81 175.41,-522.84 134.63,-703.45 -19.48,-86.26 -58.25,-155.2 -112.56,-202.03 -53.94,-46.5 -130.49,-75.65 -226.21,-82.9 -206.01,-15.61 -475.64,65.31 -790.45,273.1 -2.24,1.48 -4.11,2.82 -6.23,4.47l-5145.85 3993.93c-273.84,212.53 -476.24,385.36 -638.8,560.66 -153.33,165.33 -273.89,337.8 -392.3,557.99 -903.97,1681.12 -1870.56,4115.01 -2757.08,6347.29 -290.45,731.36 -573.19,1443.27 -772.16,1931.54 -230.91,566.6 -402.83,1885.03 -534.26,3515.55 -135.27,1678.2 -223.81,3642.89 -288.85,5470.06 -101.38,2848.11 -1370.75,5189.05 -3309.44,7166.81 -1907.59,1946.02 -4461.95,3534.32 -7179.79,4906.86 -196.75,99.24 -436.7,20.19 -535.94,-176.56 -99.24,-196.75 -20.19,-436.7 176.56,-535.94 2649.86,-1338.21 5133.39,-2879.71 6970.41,-4753.74 1805.9,-1842.29 2987.93,-4011.75 3081.32,-6635.55 66.23,-1860.46 155.34,-3848.07 288.85,-5504.44 137.36,-1704.07 325.45,-3102.63 590.52,-3753.05 296.49,-727.57 531.05,-1318.18 772.16,-1925.3 897.15,-2259.04 1875.32,-4722.09 2794.58,-6431.65 151.4,-281.54 308.38,-505.11 511.04,-723.63 193.42,-208.56 425.59,-407.5 735.68,-648.16l5158.56 -4003.8 0.07 0.09c7.05,-5.43 14.3,-10.69 21.8,-15.71 482.43,-323.23 934.19,-446.09 1308.98,-417.7 270.72,20.5 504.57,117.9 688.71,276.66 183.77,158.46 310.87,373.6 368.8,630.15 78.59,348.02 25.48,774.4 -197.13,1228.45 -89.18,181.91 -231.41,398.57 -413.86,640.52 -27.12,35.96 -27.3,83.62 -0.47,119.79 26.84,36.18 72.52,49.82 114.8,34.28 692.03,-254.26 1299.72,-377.18 1742,-406.19 285.86,-18.75 535.17,53.35 738.26,187.87 162.98,107.94 292.57,255.44 384.43,427.82 88.04,165.23 140.54,351.93 153.28,546.22 20.41,311.1 -60.15,647.25 -259.41,948.11 -213.08,321.69 -857.66,678.15 -1599,1088.09 -806.42,445.93 -1738.87,961.56 -2175.98,1438.59 -148.42,162.23 -400.27,173.42 -562.5,25 -162.23,-148.42 -173.42,-400.27 -25,-562.5 530.33,-578.75 1521.7,-1126.97 2379.1,-1601.09 648.96,-358.86 1213.23,-670.9 1317.76,-828.71 97.99,-147.95 137.83,-309.89 128.15,-457.49 -5.39,-82.29 -25.79,-157.91 -59.52,-221.22 -29.93,-56.17 -71.08,-103.52 -121.93,-137.2 -62.61,-41.47 -145.67,-63.29 -247.64,-56.61 -470.47,30.86 -1170.27,190.35 -1975.37,542.64 -627.61,274.62 -1315.17,666.19 -2003.05,1205 -3.47,2.72 -6.29,5.23 -9.39,8.36 -637.74,644.01 -1303.23,1288.99 -1882.76,1850.67 -256.87,248.95 -496.74,481.44 -703.49,683.92 -369.66,362.03 -581.61,1504.55 -705.04,2892.43 -129.65,1457.78 -148.33,3162.62 -147.83,4563.75 0.01,49.09 0.17,99.5 0.35,151.06 0.17,47.77 32.89,87.83 79.65,97.55 46.76,9.71 92.73,-13.99 111.92,-57.72 508.74,-1159.05 870.89,-2199.94 1233,-3240.77 263.48,-757.36 526.98,-1514.75 831.03,-2282.97 231.48,-584.87 510.67,-972.94 803.14,-1200.83 254.21,-198.1 520.39,-281.58 781.56,-270.98 262.39,10.65 506.14,115.33 717.09,293.51 254.85,215.25 463.29,543.98 591.65,939.78 266.92,822.98 -41.03,2332.03 -336.18,3778.4 -51.62,252.97 20.31,-102.17 -45.71,222.71 -650.48,3200.01 -514.71,7330.77 -401.2,10784.43 14.73,448.23 29.09,884.98 41.79,1324.95 75.75,2624.19 -861.25,4846.99 -2297.58,6753.93 -1415.01,1878.65 -3313.43,3444.49 -5196.09,4783.08 -673.54,478.89 -1293.31,942.16 -1873.07,1397.71 -581.02,456.55 -1107.27,893.59 -1594.29,1320.47 -670.14,587.4 -1284.19,1169.82 -1877.69,1767.8 -599.9,604.43 -1170.5,1215.52 -1751.33,1857.86 -147.56,163.09 -399.41,175.68 -562.5,28.12 -163.09,-147.56 -175.68,-399.41 -28.12,-562.5 599.08,-662.51 1180.03,-1285.17 1776.33,-1885.98 602.73,-607.27 1229.66,-1201.67 1918.31,-1805.3 512.71,-449.41 1050.07,-896.42 1625.53,-1348.59 576.72,-453.16 1206.4,-923.35 1904.33,-1419.59 1826.05,-1298.34 3663.68,-2812.15 5021.09,-4614.34 1336.11,-1773.89 2207.98,-3833.18 2138.2,-6250.79 -11.95,-414.3 -26.69,-862.2 -41.79,-1321.83 -114.86,-3494.59 -252.23,-7674.3 416.82,-10965.69l45.84 -225.8 -0.12 -0.03c-3.84,18.75 -6.9,33.76 -0.01,0 274.58,-1345.53 561.05,-2749.38 358.06,-3375.26 -81.77,-252.13 -204.25,-452.84 -347.89,-574.16 -77.03,-65.06 -156.62,-102.93 -232.73,-106.01 -77.35,-3.13 -164.99,28.43 -259.68,102.22 -184.71,143.92 -373.72,421.06 -550,866.47 -316.58,799.86 -569.13,1525.79 -821.67,2251.71 -613.6,1763.73 -1227.4,3527.64 -2534.66,5857.25 -1.63,2.9 -2.9,5.44 -4.25,8.49 -65.95,149.09 -143.89,287.98 -235.8,413.35 -2.21,3.01 -3.96,5.68 -5.84,8.91 -71.95,123.9 -145.91,249.48 -221.91,376.69 -113.04,188.98 -357.9,250.54 -546.88,137.5 -188.98,-113.04 -250.54,-357.9 -137.5,-546.88 75.29,-126.02 148.48,-250.37 219.74,-373.13 0.91,-1.56 1.64,-2.91 2.47,-4.52 5.92,-11.52 12.48,-22.84 19.61,-33.92 0.92,-1.43 1.67,-2.66 2.52,-4.13 64.87,-112.15 128.17,-223.07 189.84,-332.65 2.01,-3.56 3.55,-6.7 5.13,-10.47 280.18,-670.47 276.24,-1707.69 273.21,-2490.33 -0.28,-75.29 -0.58,-148.39 -0.6,-218.78 -0.51,-1417.4 18.57,-3144.06 150.95,-4632.51 138.6,-1558.34 412.99,-2876.85 939.42,-3392.43 216.12,-211.66 453,-441.25 706.61,-687.04 578.41,-560.59 1244.57,-1206.25 1877.21,-1843.76 1.69,-1.71 3.09,-3.21 4.66,-5.03zm11000.86 11260.37c-8.63,-137.52 95.87,-256.02 233.39,-264.65 137.52,-8.63 256.02,95.87 264.65,233.39 27.93,441.51 -78.06,869.58 -288.43,1236.44 -211.52,368.88 -528.96,676.62 -922.22,874.68 -122.97,62.02 -272.94,12.61 -334.96,-110.36 -62.02,-122.97 -12.61,-272.94 110.36,-334.96 303.63,-152.92 549.15,-391.26 713.22,-677.4 163.25,-284.7 245.57,-616.12 223.99,-957.14zm-2164.32 18905.06c-661.38,141.91 -1321.05,9.22 -1857.76,-323.16 -550.47,-340.91 -970.74,-891.16 -1130.33,-1569.93l-10.94 -46.54 0 -2.38c-141.91,-661.39 -9.21,-1321.03 323.17,-1857.74 340.91,-550.47 891.15,-970.74 1569.9,-1130.33l46.53 -10.94 2.41 0c661.39,-141.91 1321.03,-9.21 1857.74,323.17 550.47,340.91 970.74,891.15 1130.33,1569.9l10.94 46.52 0 2.41c141.91,661.38 9.21,1321.04 -323.17,1857.75 -340.91,550.47 -891.15,970.74 -1569.91,1130.33l-46.52 10.94 -2.39 0zm-1439 -1001.28c375.61,232.61 840.85,321.72 1306.64,212.22l0.36 -0.08c464.56,-109.33 840.48,-395.91 1072.7,-770.89 232.61,-375.61 321.73,-840.84 212.23,-1306.63l-0.25 -1.08c-109.45,-464.22 -395.93,-839.89 -770.72,-1071.99 -375.61,-232.61 -840.83,-321.73 -1306.62,-212.23l-1.45 0.34c-464.06,109.51 -839.59,395.94 -1071.63,770.63 -232.61,375.61 -321.73,840.83 -212.23,1306.62l0.17 0.73c109.39,464.4 395.92,840.2 770.8,1072.36zm4147.3 6341.79c-553.28,130.07 -1107.78,23.05 -1556.99,-255.14 -449.75,-278.53 -793.1,-727.98 -923.44,-1282.3 -130.06,-553.26 -23.03,-1107.78 255.17,-1556.99 278.53,-449.74 727.99,-793.1 1282.3,-923.41 553.27,-130.08 1107.76,-23.04 1556.98,255.15 449.74,278.53 793.09,727.98 923.42,1282.31 130.06,553.29 23.03,1107.78 -255.15,1556.97 -278.51,449.73 -727.95,793.08 -1282.29,923.41zm-1138.23 -933.26c274.88,170.23 615.6,235.4 956.95,155.15 340.32,-80.01 615.56,-289.72 785.45,-564.06 170.23,-274.87 235.4,-615.58 155.16,-956.91 -80.01,-340.33 -289.73,-615.59 -564.07,-785.49 -274.89,-170.23 -615.61,-235.4 -956.96,-155.15 -340.29,80 -615.54,289.71 -785.44,564.05 -170.25,274.9 -235.41,615.62 -155.17,956.97 80.01,340.28 289.73,615.54 564.08,785.44zm4522.43 4057.1c-412.03,83.14 -822.16,-1.64 -1157.05,-209.03 -349.02,-216.14 -615.45,-564.8 -716.52,-994.68l-10.94 -46.54 0 -3.72c-83.13,-412.04 1.64,-822.17 209.03,-1157.03 216.15,-349.02 564.79,-615.43 994.67,-716.51l46.52 -10.94 3.73 0c412.04,-83.15 822.18,1.62 1157.05,209.01 348.93,216.08 615.31,564.63 716.43,994.34l11.02 44.1 0 6.5c83.15,412.03 -1.63,822.16 -209.01,1157.04 -216.14,349.02 -564.8,615.44 -994.68,716.52l-46.53 10.94 -3.72 0zm-738.29 -887.15c174.17,107.86 390.37,149.08 607.27,98.09l0.36 -0.09c215.68,-50.81 390.01,-183.53 497.47,-357.07 107.85,-174.16 149.06,-390.36 98.07,-607.26l-0.07 -0.31c-50.79,-215.71 -183.54,-390.06 -357.08,-497.53 -173.95,-107.72 -389.84,-148.95 -606.46,-98.26 -0.52,0.12 -0.96,0.22 -1.47,0.35l-21.42 5.36c-205.66,54.4 -371.91,183.96 -475.74,351.63 -107.86,174.16 -149.08,390.36 -98.09,607.26l0.09 0.37c50.8,215.67 183.54,390 357.07,497.46zm18857.25 -2141.23c98.69,96 100.88,253.85 4.88,352.54 -96,98.69 -253.85,100.88 -352.54,4.88 -373.29,-364.11 -741.41,-714.26 -1119.9,-1058.83 -378.33,-344.43 -758.75,-675.88 -1153.58,-999.89 -106.24,-87.37 -121.55,-244.34 -34.18,-350.58 87.37,-106.24 244.34,-121.55 350.58,-34.18 411.86,337.98 797.74,673.77 1173.12,1015.51 375.24,341.62 748.35,696.7 1131.62,1070.55zm-13417.27 -35639.91c13.74,12.09 26.47,24.96 38.15,38.47 1.57,1.82 2.96,3.33 4.66,5.04 632.62,637.47 1298.73,1283.09 1877.12,1843.67 253.64,245.84 490.48,475.38 706.72,687.16 528.93,518.02 803.74,1841.31 941.97,3403.52 130.79,1478.19 149.1,3216.36 148.4,4642.59l-0.03 45.19c-0.49,797.3 -1.19,1975.54 299.98,2691.27 1.58,3.75 3.12,6.85 5.12,10.39 128.66,227.69 264,460.77 406.86,699.91 113.04,188.98 51.48,433.84 -137.5,546.88 -188.98,113.04 -433.84,51.48 -546.88,-137.5 -70.69,-118.34 -139.5,-235.14 -206.7,-350.61 -1.74,-2.99 -3.34,-5.47 -5.37,-8.27 -80.22,-111.04 -150.03,-234.49 -210.64,-367.64 -1.26,-2.77 -2.44,-5.09 -3.94,-7.74 -1335.68,-2365.98 -1955.81,-4148.28 -2575.82,-5930.44 -252.54,-725.91 -505.1,-1451.84 -821.67,-2251.7 -176.29,-445.41 -365.29,-722.55 -549.99,-866.47 -94.68,-73.78 -182.32,-105.34 -259.67,-102.21 -76.12,3.08 -155.71,40.95 -232.74,106 -143.64,121.32 -266.12,322.03 -347.89,574.16 -203,625.89 83.48,2029.74 358.05,3375.26 6.89,33.76 3.83,18.76 -0.01,0l-0.12 0.03 45.84 225.8c669.05,3291.39 531.68,7471.1 416.82,10965.69 -15.1,459.63 -29.84,907.53 -41.79,1321.83 -69.78,2417.61 802.09,4476.9 2138.2,6250.79 1357.41,1802.19 3195.04,3316 5021.09,4614.34 697.93,496.24 1327.61,966.43 1904.33,1419.59 575.46,452.17 1112.82,899.18 1625.53,1348.59 688.65,603.62 1315.58,1198.03 1918.31,1805.3 596.32,600.81 1177.25,1223.47 1776.33,1885.98 147.56,163.09 134.97,414.94 -28.12,562.5 -163.09,147.56 -414.94,134.97 -562.5,-28.12 -580.83,-642.33 -1151.42,-1253.43 -1751.33,-1857.86 -593.5,-597.97 -1207.54,-1180.4 -1877.69,-1767.8 -487.02,-426.88 -1013.27,-863.92 -1594.29,-1320.47 -579.76,-455.55 -1199.53,-918.82 -1873.07,-1397.71 -1882.66,-1338.59 -3781.08,-2904.43 -5196.09,-4783.08 -1436.33,-1906.94 -2373.33,-4129.74 -2297.58,-6753.93 12.7,-439.97 27.06,-876.72 41.79,-1324.95 113.51,-3453.66 249.28,-7584.42 -401.2,-10784.43 -66.02,-324.88 5.91,30.26 -45.71,-222.71 -295.15,-1446.37 -603.1,-2955.42 -336.17,-3778.4 128.36,-395.8 336.8,-724.53 591.65,-939.78 210.95,-178.17 454.7,-282.87 717.1,-293.5 261.16,-10.6 527.34,72.89 781.55,270.97 292.48,227.9 571.65,615.97 803.13,1200.83 304.04,768.21 567.54,1525.59 831.03,2282.96 362.18,1041.04 724.4,2082.13 1233.28,3241.43 19.22,43.79 65.28,67.49 112.09,57.68 46.81,-9.81 79.47,-50.03 79.48,-97.85 0,-28.73 0.02,-57.09 0.04,-85.01l0.03 -45.19c0.69,-1393.16 -17.64,-3095.98 -148.4,-4573.83 -123.33,-1393.83 -335.06,-2541.73 -704.47,-2903.52 -206.69,-202.43 -446.7,-435.04 -703.6,-684.04 -579.5,-561.64 -1244.89,-1206.55 -1882.62,-1850.54 -3.1,-3.13 -5.92,-5.64 -9.39,-8.36 -687.89,-538.8 -1375.45,-930.37 -2003.08,-1205.01 -805.1,-352.29 -1504.9,-511.78 -1975.37,-542.64 -101.97,-6.68 -185.03,15.14 -247.64,56.61 -50.85,33.68 -92,81.03 -121.93,137.2 -33.73,63.31 -54.13,138.93 -59.52,221.22 -9.68,147.6 30.16,309.54 128.15,457.49 104.53,157.81 668.8,469.85 1317.76,828.71 857.4,474.12 1848.78,1022.33 2379.1,1601.09 148.42,162.23 137.23,414.08 -25,562.5 -162.23,148.42 -414.08,137.23 -562.5,-25 -437.11,-477.03 -1369.56,-992.66 -2175.98,-1438.59 -741.34,-409.94 -1385.92,-766.4 -1599,-1088.09 -199.26,-300.86 -279.82,-637.01 -259.41,-948.11 12.74,-194.29 65.24,-380.99 153.28,-546.22 91.86,-172.38 221.45,-319.88 384.43,-427.82 203.09,-134.52 452.4,-206.62 738.26,-187.87 442.28,29.01 1049.97,151.92 1742,406.19 42.28,15.53 87.96,1.9 114.8,-34.27 26.83,-36.17 26.65,-83.84 -0.47,-119.8 -182.46,-241.95 -324.68,-458.62 -413.86,-640.52 -222.61,-454.05 -275.72,-880.43 -197.13,-1228.45 57.93,-256.55 185.03,-471.69 368.8,-630.15 184.14,-158.76 417.99,-256.16 688.71,-276.66 374.79,-28.39 826.55,94.47 1308.98,417.7 7.5,5.02 14.75,10.28 21.8,15.71l0.07 -0.09 5158.56 4003.8c310.09,240.66 542.26,439.6 735.68,648.16 202.66,218.52 359.64,442.09 511.04,723.63 919.26,1709.54 1897.42,4172.58 2794.56,6431.6 241.15,607.22 475.62,1197.64 772.18,1925.35 265.07,650.42 453.16,2048.98 590.52,3753.05 133.51,1656.37 222.62,3643.98 288.85,5504.44 93.39,2623.8 1275.42,4793.26 3081.32,6635.55 1837.02,1874.03 4320.55,3415.53 6970.41,4753.74 196.75,99.24 275.8,339.19 176.56,535.94 -99.24,196.75 -339.19,275.8 -535.94,176.56 -2717.84,-1372.54 -5272.2,-2960.84 -7179.79,-4906.86 -1938.69,-1977.76 -3208.06,-4318.7 -3309.44,-7166.81 -65.04,-1827.17 -153.58,-3791.86 -288.85,-5470.06 -131.43,-1630.52 -303.35,-2948.95 -534.26,-3515.55 -198.94,-488.17 -481.75,-1200.3 -772.18,-1931.59 -886.51,-2232.26 -1853.1,-4666.14 -2757.06,-6347.24 -118.41,-220.19 -238.97,-392.66 -392.3,-557.99 -162.56,-175.3 -364.96,-348.13 -638.8,-560.66l-5145.85 -3993.93c-2.12,-1.65 -3.99,-2.99 -6.23,-4.47 -314.81,-207.79 -584.44,-288.71 -790.45,-273.1 -95.72,7.25 -172.27,36.4 -226.21,82.9 -54.31,46.83 -93.08,115.77 -112.56,202.03 -40.78,180.61 -3.04,422.64 134.63,703.45 279.12,569.31 1234.91,1608.9 2293.73,2678.08 1.69,1.7 3.17,3.11 4.97,4.69zm-1111.82 8646.93c-4.8,-23.44 -10.8,-52.7 -0.12,0.03l0.12 -0.03zm-9551.08 -497.57c926.58,-217.84 1854.64,-38.95 2606.03,426.37 751.92,465.66 1326.06,1217.53 1544.15,2145.17 217.84,926.59 38.94,1854.65 -426.38,2606.03 -465.65,751.91 -1217.51,1326.04 -2145.16,1544.14 -926.59,217.85 -1854.64,38.95 -2606.02,-426.37 -751.91,-465.65 -1326.05,-1217.51 -1544.15,-2145.16 -217.84,-926.58 -38.95,-1854.64 426.37,-2606.03 465.65,-751.91 1217.51,-1326.05 2145.16,-1544.15zm2187.27 1104.49c-577.06,-357.36 -1291.34,-494.39 -2006.01,-326.37 -713.61,167.77 -1291.27,608.27 -1648.3,1184.79 -357.36,577.06 -494.39,1291.34 -326.37,2006.01 167.77,713.61 608.27,1291.27 1184.79,1648.3 577.05,357.36 1291.32,494.39 2006,326.37 713.61,-167.77 1291.27,-608.27 1648.3,-1184.78 357.36,-577.05 494.4,-1291.33 326.38,-2006.01 -167.77,-713.61 -608.26,-1291.27 -1184.79,-1648.31zm-1152.02 -8859.94l-0.73 0.17c-588.83,138.64 -1065.44,502.09 -1359.97,977.71 -294.98,476.33 -408.06,1066.09 -269.3,1656.32 138.51,589.17 502.07,1066.03 977.88,1360.68 476.33,294.99 1066.09,408.06 1656.32,269.3 589.17,-138.52 1066.04,-502.09 1360.69,-977.88 294.98,-476.33 408.05,-1066.09 269.29,-1656.32l-0.17 -0.72c-138.64,-588.83 -502.11,-1065.43 -977.71,-1359.96 -476.33,-294.98 -1066.08,-408.06 -1656.3,-269.3zm-132.73 -789.06c785.95,-171.24 1570.25,-14.57 2207.79,380.24 651.18,403.27 1148.39,1054.33 1337.24,1857.52l10.94 46.53 0 2.02c171.24,785.95 14.58,1570.26 -380.23,2207.81 -403.27,651.18 -1054.34,1148.39 -1857.55,1337.24 -802.14,188.58 -1605.69,33.65 -2256.34,-369.3 -651.2,-403.27 -1148.41,-1054.33 -1337.24,-1857.54 -188.59,-802.15 -33.64,-1605.69 369.3,-2256.34 403.27,-651.2 1054.35,-1148.41 1857.54,-1337.24l46.54 -10.94 2.01 0zm-904.55 -6629.96l-0.73 0.17c-464.4,109.39 -840.19,395.92 -1072.34,770.8 -232.61,375.61 -321.73,840.85 -212.23,1306.64l0.17 0.72c109.37,464.4 395.92,840.19 770.8,1072.35 375.6,232.6 840.84,321.72 1306.64,212.22l1.08 -0.25c464.23,-109.45 839.89,-395.92 1071.98,-770.72 232.61,-375.6 321.73,-840.83 212.23,-1306.61l-0.26 -1.09c-109.44,-464.24 -395.93,-839.91 -770.71,-1072.01 -375.61,-232.61 -840.84,-321.72 -1306.63,-212.22zm-132.36 -789.06c661.39,-141.91 1321.04,-9.22 1857.75,323.16 550.47,340.91 970.74,891.16 1130.33,1569.93l10.94 46.54 0 2.38c141.92,661.38 9.21,1321.04 -323.17,1857.74 -340.89,550.46 -891.13,970.74 -1569.89,1130.33l-46.52 10.94 -2.41 0c-661.4,141.91 -1321.05,9.21 -1857.76,-323.16 -550.47,-340.91 -970.76,-891.15 -1130.33,-1569.91l-10.94 -46.53 0 -2.39c-141.91,-661.4 -9.21,-1321.06 323.17,-1857.76 340.89,-550.47 891.14,-970.74 1569.91,-1130.33l46.54 -10.94 2.38 0zm-2708.29 -5340.52c553.27,-130.08 1107.77,-23.03 1556.98,255.16 449.75,278.52 793.1,727.98 923.43,1282.3 130.06,553.27 23.03,1107.77 -255.17,1556.98 -278.53,449.74 -727.99,793.1 -1282.3,923.41 -553.25,130.07 -1107.76,23.05 -1556.97,-255.14 -449.75,-278.52 -793.1,-727.98 -923.43,-1282.31 -130.08,-553.27 -23.03,-1107.77 255.16,-1556.98 278.53,-449.75 727.98,-793.11 1282.3,-923.42zm1138.22 933.28c-274.89,-170.23 -615.6,-235.41 -956.96,-155.16 -340.28,79.99 -615.54,289.71 -785.44,564.06 -170.23,274.89 -235.41,615.61 -155.16,956.96 80,340.29 289.72,615.55 564.07,785.45 274.88,170.23 615.6,235.39 956.95,155.14 340.28,-79.99 615.54,-289.71 785.44,-564.05 170.24,-274.89 235.41,-615.61 155.17,-956.96 -80,-340.29 -289.72,-615.54 -564.07,-785.44zm637.68 34083.79l0.31 -0.07c589.03,-138.56 1065.78,-502.1 1360.4,-977.81 294.92,-476.23 408,-1065.84 269.38,-1655.94l-0.09 -0.37c-138.51,-589.17 -502.07,-1066.04 -977.88,-1360.69 -476.33,-294.99 -1066.08,-408.06 -1656.32,-269.3 -589.17,138.52 -1066.03,502.09 -1360.68,977.88 -294.99,476.34 -408.06,1066.1 -269.3,1656.32l0.17 0.72c138.64,588.83 502.11,1065.43 977.71,1359.96 476.33,294.98 1066.08,408.06 1656.3,269.3zm132.73 789.06c-785.95,171.24 -1570.25,14.57 -2207.79,-380.24 -651.18,-403.27 -1148.39,-1054.33 -1337.24,-1857.52l-10.94 -46.53 0 -2.02c-171.24,-785.95 -14.58,-1570.27 380.24,-2207.81 403.27,-651.18 1054.33,-1148.39 1857.54,-1337.24 802.14,-188.58 1605.69,-33.65 2256.34,369.3 649.66,402.32 1146.03,1051.28 1335.87,1851.87l1.38 5.71c188.57,802.13 33.64,1605.65 -369.3,2256.3 -401.58,648.44 -1048.89,1144.18 -1847.42,1334.8 -2.99,0.71 -5.51,1.43 -8.42,2.4l-17.55 5.85c-10.71,3.57 -20.35,5.13 -31.63,5.13l-1.08 0zm-21065.22 13345.88c-98.69,96 -256.54,93.81 -352.54,-4.88 -96,-98.69 -93.81,-256.54 4.88,-352.54 383.26,-373.85 756.38,-728.92 1131.62,-1070.54 375.39,-341.74 761.27,-677.53 1173.13,-1015.51 106.24,-87.37 263.21,-72.06 350.58,34.18 87.37,106.24 72.06,263.21 -34.18,350.58 -394.84,324.02 -775.25,655.46 -1153.59,999.89 -378.49,344.57 -746.62,694.71 -1119.9,1058.82zm14181.55 -27350.36c10.68,-52.73 4.67,-23.46 -0.12,-0.03l0.12 0.03z"></path></g></g>
</svg>
</g></g></svg>