<?xml version="1.0" encoding="UTF-8" standalone="no"?>
<svg id="svg4162" xmlns:rdf="http://www.w3.org/1999/02/22-rdf-syntax-ns#" xmlns="http://www.w3.org/2000/svg" height="245.48mm" width="103.11mm" version="1.1" xmlns:cc="http://creativecommons.org/ns#" xmlns:dc="http://purl.org/dc/elements/1.1/" viewBox="0 0 365.35388 869.79706">
<g id="layer1" transform="translate(-322.41 -137.6)">
<path id="path850" d="m384.78 137.6c-2.464 0.0199-4.9266 0.12765-7.3613 0.55078-3.3787 0.5777-6.7202 1.3708-9.9395 2.5664-3.3221 1.2418-6.5883 2.6316-9.6484 4.4394-3.1575 1.8776-6.2141 3.9235-9.0273 6.2949-2.8331 2.379-5.5978 4.8602-7.9727 7.709-2.3835 2.8595-4.6513 5.8174-6.5898 9.002-1.9616 3.2522-3.8042 6.5759-5.2715 10.086-1.5001 3.6445-2.8533 7.3476-3.8828 11.156-1.0205 3.9089-1.9645 7.8498-2.334 11.883-0.35726 4.1686-0.49223 8.356-0.13281 12.531 0.38071 4.2207 1.0085 8.4168 2.1914 12.496 1.1418 4.0439 2.3254 8.0761 3.8125 12.01 1.4784 3.8304 3.0602 7.6325 5.0547 11.229 1.8711 3.4337 3.8066 6.8291 5.9414 10.107 1.9927 3.2029 4.1152 6.3197 6.1094 9.5215 1.9739 3.1995 4.0543 6.3359 5.8867 9.6211 1.8278 3.1798 3.4618 6.4626 4.8691 9.8516 1.342 3.4459 2.5165 6.9735 3.1992 10.615 0.69826 3.8466 1.1467 7.726 1.1211 11.643-0.0397 4.1866-0.15012 8.3766-0.72461 12.531-0.57016 4.446-1.3133 8.8646-1.8965 13.309-0.55934 4.4874-1.2039 8.9663-1.6348 13.469-0.33921 4.7011-0.54431 9.414-0.97265 14.109-0.28147 4.6886-0.4208 9.3849-0.33203 14.082 0.065 4.5564 0.18382 9.1139 0.62695 13.652 0.4601 4.6977 1.0788 9.3798 2.043 14.004 0.94834 4.7105 2.0201 9.3922 3.377 14.004 1.3272 4.6405 2.6933 9.2696 4.2363 13.844 1.6286 4.6104 3.3016 9.2093 5.2578 13.693 1.9689 4.5481 3.9964 9.0726 6.2305 13.498 2.2868 4.4927 4.6384 8.9512 7.2168 13.285 2.6144 4.3602 5.3253 8.6674 8.1894 12.869 2.7104 4.0516 5.5134 8.0421 8.4707 11.918 2.9259 3.7104 5.864 7.4064 8.9375 10.996 3.1164 3.575 6.3396 7.0548 9.6562 10.445 3.2752 3.3759 6.6672 6.6421 10.002 9.959 3.3473 3.2965 6.7829 6.4984 10.156 9.7676 3.2921 3.1774 6.4808 6.4602 9.6621 9.748 3.0193 3.1144 6.1084 6.1537 9.1562 9.2402 2.9508 2.9845 5.9495 5.934 8.7324 9.0781 2.6707 3.1156 5.3329 6.235 8.0898 9.2754 2.5906 2.9391 5.0698 5.9716 7.5215 9.0274 2.377 2.9648 4.7477 5.9502 6.7226 9.2051 2.0161 3.2287 3.9519 6.504 5.4902 9.9941 1.5517 3.5816 2.9384 7.2434 3.9766 11.01 1.01 3.9029 1.8391 7.864 2.2188 11.883 0.39153 4.2485 0.60173 8.5098 0.42383 12.777-0.24178 4.5248-0.63384 9.0408-1.3945 13.512-0.8224 4.7482-1.8031 9.481-3.2285 14.09-1.4752 4.8158-3.0215 9.6083-4.6602 14.371-1.555 4.5841-2.9577 9.2168-4.4531 13.82-1.4276 4.3837-2.892 8.7519-4.334 13.131-1.4936 4.3697-3.0538 8.7172-4.8281 12.982-1.7105 4.3393-3.3901 8.6896-5.0742 13.039-1.7401 4.2972-3.5626 8.5561-5.4492 12.791-1.8426 4.1925-3.7619 8.3547-5.7578 12.477-1.975 4.0479-3.9221 8.1115-5.9707 12.123-1.9638 3.9239-3.9179 7.8509-6.0527 11.686-2.1215 3.774-4.2848 7.5259-6.4355 11.283-2.1507 3.6963-4.3372 7.3707-6.3652 11.137-1.9956 3.626-4.0118 7.2412-5.9824 10.881-1.918 3.5137-3.8431 7.0288-5.7812 10.531-1.8974 3.4268-3.7362 6.8909-5.25 10.508-1.5676 3.7542-2.9418 7.5714-3.5527 11.615-0.75203 4.0729-1.3262 8.1749-1.5781 12.312-0.24177 4.2114-0.29496 8.4305-0.0352 12.645 0.20208 4.2069 0.45436 8.4074 1.0566 12.58 0.59722 4.1696 1.3418 8.3195 2.3125 12.42 0.95268 4.0493 2.0868 8.0509 3.3477 12.016 1.2435 3.9136 2.5986 7.7876 4.1582 11.588 1.5207 3.7257 3.1926 7.3817 5.2148 10.867 1.9544 3.436 3.9765 6.8387 6.2441 10.08 2.307 3.2478 4.7703 6.3819 7.4512 9.332 2.7104 2.9228 5.4876 5.792 8.5762 8.3223 12.651 10.423 26.974 18.631 40.971 27.129 3.7757 2.1388 7.6099 4.1763 11.537 6.0254 4.0579 1.8617 8.1505 3.6489 12.391 5.0606 4.0835 1.381 8.1949 2.6963 12.377 3.75 8.1819 1.6671 42.965 5.5155 69.564-9.4649 1.9609-1.0118 3.8659-2.1192 5.7305-3.2988 2.0482-1.2915 3.9948-2.7182 5.8789-4.2363 1.9508-1.6029 3.7932-3.3404 5.6524-5.0469 1.9905-1.8061 3.8548-3.7334 5.6602-5.7227 1.9277-2.1565 3.6593-4.4747 5.2637-6.8789 1.6914-2.6024 3.1667-5.339 4.6094-8.084 1.4886-2.7986 2.9012-5.6326 4.2226-8.5137 1.3843-2.9969 2.5063-6.1007 3.5586-9.2266 1.0176-3.1227 1.9459-6.2699 2.791-9.4434 0.8556-3.2606 1.4537-6.5854 2.0293-9.9043 0.568-3.2974 1.0663-6.6077 1.5664-9.916 0.49186-3.2698 0.94602-6.5405 1.3809-9.8184 0.44638-3.2769 0.82074-6.5624 1.1621-9.8516 0.35365-3.3559 0.56801-6.7243 0.73437-10.094 0.14795-3.3752 0.28074-6.7511 0.3457-10.129 0.0541-3.3367 0.058-6.6766 0.0508-10.014 0-3.3045-0.15839-6.6024-0.30274-9.9024-0.10465-3.1267-0.25746-6.2468-0.48047-9.3672-0.2526-3.0474-0.59663-6.0869-0.97265-9.1211-0.3771-2.9712-0.73342-5.9501-1.1055-8.9219-0.35725-2.9616-0.78031-5.9121-1.1856-8.8672-0.40417-2.9168-0.76525-5.8385-1.1348-8.7598-0.36086-2.9073-0.76549-5.8125-1.1758-8.7129-0.42871-2.8991-0.83562-5.7998-1.2344-8.7031-0.37746-2.9041-0.81586-5.8-1.2402-8.6973-0.41823-2.8443-0.80569-5.6923-1.1777-8.543-1.8133-16.309 0.2636-32.953 1.0488-47.898 0.1263-3.7036 0.36112-7.4024 0.77539-11.086 0.43772-3.6581 0.94971-7.3059 1.5098-10.947 0.58712-3.6146 1.3256-7.204 2.1621-10.77 0.82638-3.5904 1.6749-7.1752 2.6582-10.727 0.98948-3.3964 2.0403-6.7717 3.2207-10.107 1.1692-3.3218 2.3522-6.6425 3.6719-9.9082 1.2637-3.2265 2.5377-6.4454 3.7715-9.6836 1.2295-3.2265 2.3905-6.4778 3.5156-9.7422 1.1216-3.2568 2.2571-6.5141 3.3477-9.7812 1.0678-3.2603 2.1063-6.526 3.0449-9.8262 0.96314-3.2692 1.8704-6.5565 2.6582-9.873 0.79064-3.2633 1.4934-6.5455 2.0293-9.8613 0.51747-3.1814 0.98893-6.3774 1.3047-9.5859 0.32116-3.4957 0.64691-6.9899 1.0215-10.48 0.42582-3.5346 0.85781-7.0672 1.4024-10.586 0.57738-3.4196 1.2306-6.8235 1.9375-10.219 0.70801-3.3507 1.4582-6.6916 2.1641-10.043 0.68419-3.3522 1.3545-6.7076 2.0156-10.064 0.65603-3.4497 1.2456-6.9199 1.6855-10.404 0.44891-3.4793 0.80544-6.9685 1.0703-10.467 0.27065-3.4919 0.45058-6.9906 0.44336-10.494 0.0361-3.4953 0.0368-6.9881-0.13281-10.48-0.14434-3.4913-0.29989-6.9831-0.57812-10.467-0.31034-3.4746-0.68668-6.9436-1.2402-10.389-0.58604-3.3769-1.202-6.7555-2.1074-10.064-0.90432-3.1759-1.8371-6.3411-2.8691-9.4785-0.95845-3.0754-1.8907-6.1612-2.9238-9.2129-0.99669-2.9453-2.0564-5.8685-3.123-8.7891-1.0523-2.807-2.1339-5.6042-3.2832-8.373-1.1562-2.6986-2.3524-5.3793-3.6934-7.9922-1.2341-2.5219-2.4463-5.0582-3.5664-7.6328-1.0815-2.4556-2.1625-4.9118-3.1992-7.3867-1.0281-2.3736-2.1109-4.7226-3.3281-7.0059-1.1107-2.175-2.2564-4.3382-3.4609-6.4629-1.1796-2.0097-2.4358-3.9682-3.8125-5.8496-1.2583-1.7282-2.5737-3.4179-3.9316-5.0684-1.2291-1.478-2.4228-2.9846-3.6797-4.4394-0.28088-0.29127-0.54059-0.60134-0.81055-0.90235 1.9355-2.8921 6.6496-13.033 7.7422-17.629 0.28869-1.2755 0.56112-2.5506 0.78125-3.8398 0.35364-1.9415 0.6785-3.8906 0.85351-5.8574 0.14435-1.9081 0.25938-3.8159 0.1836-5.7305-0.0469-1.8358-0.15908-3.6775-0.47266-5.4902-0.31756-1.8257-0.70908-3.638-1.3164-5.3926-0.60949-1.7576-1.2764-3.4916-2.1074-5.1582-0.84153-1.6604-1.7579-3.2835-2.8203-4.8145-1.0436-1.5063-2.1451-2.9634-3.3125-4.377-1.1768-1.3716-2.3944-2.7099-3.7422-3.918-1.3244-1.166-2.6639-2.3196-4.0449-3.418-6.3414-4.718-12.525-9.3985-19.664-13.139-1.3478-0.81973-2.7258-1.5918-4.166-2.2402-1.2731-0.58702-2.5542-1.1646-3.8984-1.5723 0-0.003-0.0352-0.005-0.0352-0.008 0.34282-1.322 0.62521-2.6604 0.74609-4.0234 0.13352-1.7645 0.20304-3.5318-0.0352-5.293-0.20569-1.7777-0.54967-3.5362-1.043-5.2578-0.53588-1.7448-1.165-3.4619-2.0293-5.0742-0.89999-1.6587-1.8772-3.2788-3.0742-4.7441-1.1822-1.4727-2.4185-2.908-3.8125-4.1875-5.7907-5.5542-13.14-9.2792-19.777-13.602-1.5438-0.91124-3.14-1.7344-4.7988-2.418-1.6491-0.65474-3.3212-1.2623-5.0606-1.6348-1.4741-0.32297-2.96-0.5897-4.4551-0.79687 0.22734-1.4101 0.40251-2.8258 0.38086-4.2578-0.0397-1.6387-0.15526-3.2757-0.45117-4.8906-0.2959-1.5797-0.64744-3.1528-1.1562-4.6797-0.4915-1.4988-1.0789-2.9665-1.832-4.3555-0.78667-1.4206-1.7197-2.7472-2.9394-3.834-5.8315-5.2737-12.764-9.2412-19.672-12.969-1.6228-0.79195-3.2977-1.4811-5.0312-1.9941-1.7451-0.50351-3.5124-0.91178-5.3203-1.1133-1.796-0.17935-3.6019-0.26343-5.4062-0.15625-1.7538 0.0761-3.5047 0.19809-5.252 0.36719-0.48247 0.0444-0.96162 0.10224-1.4434 0.14843 0.36771-1.3826 0.69544-2.7838 0.84375-4.209 0.15517-1.5491 0.16665-3.103 0.12695-4.6582-0.0938-1.5923-0.29241-3.1801-0.68359-4.7285-0.40777-1.5248-0.98706-2.9884-1.8106-4.3418-0.80652-1.3505-1.6765-2.6586-2.7695-3.7988-5.3985-5.6608-13.193-8.9596-19.312-13.301-1.5607-0.88184-3.1791-1.6558-4.877-2.2402-1.8408-0.62873-3.7172-1.1593-5.6309-1.5156-1.9663-0.34823-3.94-0.65576-5.9356-0.76954-1.9541-0.0985-3.9167-0.13736-5.8711-0.0215-1.8906 0.10646-3.7786 0.22465-5.6602 0.44531-1.7758 0.22518-3.5392 0.51057-5.293 0.87305-1.4084 0.28364-2.8154 0.59743-4.2148 0.92383-0.7791-2.0835-1.6705-4.0968-2.9941-5.9062-1.774-2.4572-3.6196-4.8676-5.8652-6.9219-11.218-10.461-24.764-18.333-38.523-25.049-2.8429-1.2041-5.7767-2.2112-8.8184-2.7832-3.304-0.61003-6.635-0.97289-10-0.95117l0.0117 0.002c-0.82059-0.005-1.6416-0.009-2.4629-0.002zm11.947 35.41c25.442-0.17391 11.195 38.654 13.221 64.439-6.7326 36.49 10.574 53.266 44.883 68.832-1.9754-2.9408-3.7992-5.9895-5.4707-9.1133-1.652-3.1092-3.1718-6.2815-4.3828-9.5918-1.1999-3.2069-2.2708-6.4657-2.7695-9.8672-0.555-3.4374-1.0144-6.8972-0.9375-10.389 0.0686-3.5743 0.36099-7.147 0.97265-10.672 0.56727-3.3292 1.3154-6.6166 2.3398-9.8379 0.85018-3.0676 1.6686-6.1467 2.5996-9.1914 0.79931-2.8809 1.5481-5.7766 2.2207-8.6894 0.59651-2.6956 1.0671-5.4148 1.502-8.1406 0.36195-2.4299 0.65806-4.867 1.0352-7.2949 0.28507-2.268 0.58074-4.5359 0.92969-6.7949 0.45649-2.3646 0.79354-4.7478 1.0801-7.1387 0.0938-1.4037 0.24815-2.8017 0.38672-4.2012 0.31034-0.15589 0.61458-0.32661 0.92383-0.48633 1.1721-0.59083 2.389-1.0924 3.6152-1.5586 1.359-0.5144 2.7431-0.94177 4.1367-1.3516 1.5164-0.44397 3.0492-0.82739 4.5879-1.1856 1.6379-0.3767 3.2905-0.71332 4.9414-1.0293 1.7166-0.35111 3.4516-0.59482 5.1953-0.75977 1.8588-0.16094 3.7159-0.27533 5.5801-0.3457 1.9133-0.0657 3.8244 0.0318 5.7305 0.18945 1.9432 0.21363 3.8785 0.53012 5.7871 0.95117 0.41751 0.0949 0.82068 0.23312 1.2324 0.34571 0.0361 0.0437 0.0689 0.0829 0.0977 0.12695 0.8372 1.2124 1.5153 2.5232 2.0371 3.8984 0.48969 1.4074 0.72231 2.88 0.88867 4.3555 0.1263 1.4639 0.10371 2.9327 0.0352 4.3984-0.0902 1.4362-0.40207 2.8434-0.75391 4.2344-0.3807 1.3914-0.90106 2.7458-1.4727 4.0684-0.62573 1.3966-1.2938 2.7674-2.043 4.1016-0.81086 1.4231-1.687 2.8112-2.5527 4.2012-0.9137 1.5024-1.8536 2.9901-2.7832 4.4824-0.99417 1.5964-1.8984 3.2401-2.8125 4.8828-0.97108 1.7627-1.8874 3.5533-2.7617 5.3652-0.91984 1.852-1.7671 3.7376-2.5664 5.6445-0.81013 1.9442-1.5348 3.925-2.2266 5.9141-0.69791 2.0184-1.3246 4.0573-1.8887 6.1172-0.56402 2.076-0.99146 4.187-1.3047 6.3145-0.28147 2.2048-0.32481 4.4276-0.33203 6.6465-0.001 2.2523 0.12693 4.4969 0.33984 6.7383 0.22012 2.2649 0.66485 4.4988 1.1621 6.7168 0.48175 2.1314 1.1581 4.2102 1.8535 6.2793 0.47562 1.3486 0.22725 0.67887 0.71875 2.0234l16.627 8.7188c-0.49727-1.3275-0.24946-0.66585-0.74023-1.9941-0.73075-2.0088-1.4106-4.0427-1.9512-6.1113-0.54489-2.1403-0.9919-4.3068-1.2773-6.498-0.24178-2.1868-0.41706-4.3825-0.42969-6.584-0.0361-2.1424-0.00061-4.2849 0.20508-6.4199 0.249-2.0604 0.65197-4.0956 1.1777-6.1035 0.53119-2.0243 1.1485-4.0259 1.8262-6.0059 0.67193-1.9553 1.3811-3.903 2.1699-5.8144 0.77946-1.8787 1.6018-3.7322 2.5098-5.5527 0.85488-1.7803 1.7544-3.5433 2.707-5.2734 0.90143-1.6146 1.7927-3.2362 2.7695-4.8066 1.2294-1.3329 1.6899-3.1658 3.4102-3.4531 0.36555-0.0253 0.69534-0.16273 1.0508-0.24609 0.61707-0.10573 1.2283-0.24358 1.8457-0.3457 0.86029-0.13496 1.728-0.23496 2.5938-0.33203 1.0833-0.11836 2.1723-0.21325 3.2578-0.30274 1.3309-0.0852 2.6468-0.31205 3.9668-0.49219 1.4842-0.20208 2.9736-0.37613 4.4629-0.5371 1.6185-0.17466 3.2334-0.32408 4.8555-0.46485 1.7246-0.17393 3.4557-0.23673 5.1875-0.28906 1.7451-0.0549 3.4879 0.11502 5.207 0.40234 0.72244 0.11367 1.4312 0.28258 2.1367 0.46485 0.58171 1.0002 1.088 2.0478 1.5156 3.123 0.55356 1.4432 0.9477 2.9344 1.2891 4.4395 0.34282 1.5209 0.5023 3.0694 0.5918 4.623 0.0902 1.5683-0.0603 3.131-0.29492 4.6797-0.24899 1.6101-0.81277 3.1407-1.4316 4.6387-2.1258 5.0542-2.1194 5.5487-5.25 9.4648-1.0552 1.597-2.2046 3.1258-3.3398 4.666-1.1829 1.6413-2.3956 3.261-3.6309 4.8633-1.3799 1.7326-2.7654 3.456-4.0938 5.2285-1.3536 1.8197-2.4355 3.8144-3.4199 5.8516-0.91442 1.9002-1.603 3.8912-2.2129 5.9062-0.58027 2.006-1.0841 4.0322-1.5215 6.0742-0.44746 2.0554-0.72817 4.1427-0.89453 6.2383-0.10104 1.3303-0.10245 2.6636-0.0664 3.9961l16.359 9.2266c-0.0758-1.2721-0.12958-2.5466-0.043-3.8203 0.10104-2.0202 0.33792-4.0253 0.75976-6.0059 0.40236-1.9986 0.88843-3.9785 1.4395-5.9414 0.55861-1.9292 1.189-3.8415 2.0508-5.6602 0.91478-1.9338 1.9324-3.8235 3.2207-5.5391 1.3258-1.7644 2.707-3.4815 4.0801-5.209 1.2457-1.6115 2.473-3.2395 3.666-4.8906 1.1566-1.5687 2.3211-3.1309 3.3965-4.7578 0.70187-1.0766 1.356-2.1802 2.0156-3.2832 0.0722-0.0108 0.14493-0.0333 0.22071-0.043 0.78487-0.15553 1.5733-0.25978 2.3672-0.35938 1.0295-0.12197 2.06-0.24455 3.0957-0.29687 1.2774-0.0682 2.5551-0.12679 3.834-0.18164 1.4579-0.087 2.9176-0.10712 4.377-0.0508 1.6834 0.0971 3.3659 0.25218 5.0312 0.52149 1.7188 0.25946 3.4277 0.61702 5.1035 1.0781 0.32838 0.0906 0.64224 0.21921 0.96484 0.32422 0.39803 0.42329 0.80109 0.8377 1.1836 1.2754 1.2114 1.3794 2.2582 2.8856 3.2148 4.4492 0.91514 1.4934 1.602 3.101 2.1992 4.7422 0.55861 1.6092 0.92649 3.2774 1.2051 4.9551 0.26342 1.6457 0.29453 3.308 0.21875 4.9688-0.0794 1.6094-0.41247 3.1831-0.82422 4.7363-0.42473 1.5123-1.0131 2.973-1.6973 4.3848-0.69682 1.4213-1.5858 2.7274-2.4883 4.0234-0.97216 1.3451-2.0112 2.6428-3.0801 3.9121-1.1822 1.3307-2.4017 2.6299-3.6152 3.9316-1.3034 1.3608-2.5678 2.7481-3.793 4.1797-1.202 1.426-2.3154 2.9249-3.3691 4.4629-0.68672 1.0394-1.2787 2.1332-1.8594 3.2344l15.85 10.086c0.5384-1.0385 1.0884-2.0753 1.7344-3.0527 1.0176-1.4808 2.0935-2.92 3.2559-4.291 1.2118-1.4089 2.4682-2.7716 3.75-4.1172 0.38865-0.41658 0.7676-0.84497 1.1562-1.2617 5.2794-2.0838 13.458-5.3045 13.688-5.377 0.60541-0.2339 1.1896-0.29261 1.7969-0.38867 0.84189-0.18621 1.703-0.15647 2.5586-0.1543 1.0736-0.0325 2.136 0.10876 3.1934 0.28125 1.2312 0.22481 2.4116 0.63715 3.5801 1.0723 0.0758 0.0325 0.14687 0.073 0.22265 0.10547 0.0649 0.0559 0.13847 0.10618 0.20703 0.16211 1.3702 1.1379 2.6302 2.3887 3.8398 3.6934 1.2114 1.3362 2.3289 2.754 3.4043 4.2012 1.0797 1.4619 2.0457 3.0025 2.9316 4.5879 0.87076 1.5827 1.584 3.2482 2.2285 4.9336 0.63981 1.6642 1.0909 3.3812 1.459 5.123 0.35726 1.7252 0.52378 3.4799 0.61328 5.2363 0.10104 1.8548 0.0354 3.7105-0.0801 5.5625-0.1263 1.91-0.42805 3.8032-0.75391 5.6875-0.21652 1.2647-0.46922 2.516-0.74023 3.7695-1.3525 4.6348-3.4099 9.768-5.1406 14.508-4.907-3.4785-10.09-6.6015-16.098-9.8184-0.50737-0.29086-7.2554-4.035-7.7988-4.1426-11.187-5.5374 4.5883 3.8557 10.936 12.205 1.036 1.3697 2.1568 2.6678 3.2617 3.9824 1.3038 1.3983 2.5192 2.8767 3.7363 4.3496 1.3767 1.6177 2.6869 3.2886 3.9961 4.9609 1.4023 1.8101 2.6973 3.6984 3.9336 5.625 1.2908 2.037 2.4096 4.175 3.5449 6.3008 1.2085 2.2529 2.3329 4.5443 3.4043 6.8652 1.0779 2.454 2.1426 4.9138 3.2129 7.3711 1.1183 2.5998 2.3126 5.1648 3.5312 7.7188 1.2977 2.6118 2.5509 5.2417 3.7363 7.9062 1.1962 2.7194 2.2799 5.4898 3.3476 8.2617 1.0909 2.8932 2.1492 5.801 3.1719 8.7188 1.0479 3.0278 2.0181 6.0804 2.9668 9.1406 1.001 3.1339 1.9745 6.2795 2.8965 9.4375 0.96169 3.2225 1.6318 6.5141 2.2402 9.8184 0.61238 3.3764 1.0048 6.7847 1.3477 10.197 0.32117 3.4419 0.49471 6.8952 0.64844 10.348 0.18404 3.455 0.20809 6.9163 0.19726 10.375 0 3.4509-0.11895 6.8957-0.35351 10.338-0.24539 3.4576-0.58993 6.9127-1.0078 10.354-0.41679 3.4376-0.97424 6.8509-1.5996 10.256-0.64017 3.3475-1.3268 6.6885-2.002 10.029-0.6896 3.347-1.435 6.6794-2.1484 10.021-0.72425 3.4247-1.382 6.865-1.9883 10.312-0.58604 3.5541-1.0294 7.1303-1.4668 10.705-0.39658 3.51-0.74699 7.0277-1.0703 10.545-0.28868 3.1558-0.73266 6.2911-1.2187 9.4219-0.50161 3.2579-1.1727 6.4835-1.9258 9.6914-0.77044 3.2768-1.6488 6.5294-2.5859 9.7617-0.93571 3.2727-1.9399 6.5264-2.9961 9.7617-1.0739 3.2592-2.2115 6.4949-3.3262 9.7402-1.1151 3.2386-2.2625 6.4663-3.4746 9.6699-1.2244 3.2326-2.4975 6.4448-3.7559 9.6641-1.3283 3.2938-2.5298 6.639-3.7148 9.9863-1.1981 3.3796-2.2821 6.794-3.291 10.234-1.0169 3.5923-1.8878 7.226-2.7344 10.861-0.8491 3.6143-1.6191 7.2434-2.248 10.902-0.59145 3.6726-1.1023 7.3601-1.5664 11.051-0.45541 3.7449-0.71782 7.5098-0.88671 11.277-0.19125 3.6031-0.2276 7.2071-0.0977 10.812 0.0361 2.4871 0.28217 5.3377 0.24609 7.3164v8.3359c0 2.7886 0.0455 5.5751 0.21875 8.3594 0.13352 2.7879 0.27015 5.5815 0.44336 8.3672 0.2093 2.8343 0.46291 5.6582 0.81836 8.4785 0.36699 2.8604 0.7498 5.7243 1.1641 8.5781 0.41932 2.8935 0.8779 5.7762 1.2539 8.6758 0.39262 2.9067 0.79397 5.8186 1.2324 8.7188 0.40921 2.8935 0.8301 5.7808 1.1856 8.6816 0.37999 2.9248 0.72315 5.8537 1.127 8.7754 0.40019 2.9501 0.83235 5.8979 1.1914 8.8535 0.37602 2.9715 0.73393 5.9422 1.1074 8.9141 0.38107 3.0083 0.74371 6.0236 1.0273 9.043 0.249 3.1006 0.41351 6.2015 0.51563 9.3106 0.12269 3.281 0.34872 6.5602 0.33789 9.8457 0 3.3252 0.00094 6.6496-0.0352 9.9746-0.0505 3.3618-0.18124 6.7267-0.31836 10.086-0.14796 3.3374-0.34198 6.6696-0.67578 9.9941-0.33199 3.2727-0.69235 6.5428-1.1348 9.8027-0.42907 3.268-0.88112 6.529-1.3672 9.7891-0.4933 3.2961-0.98571 6.5958-1.5371 9.8828-0.5615 3.2667-1.1252 6.533-1.9512 9.7461-0.81843 3.1384-1.7365 6.2518-2.7285 9.3398-1.0191 3.065-2.0999 6.1123-3.4531 9.0488-1.302 2.851-2.693 5.6628-4.166 8.4297-1.411 2.6838-2.8386 5.3581-4.4961 7.9004-1.5564 2.3193-3.2418 4.5538-5.1172 6.627-1.7772 1.9385-3.6147 3.8196-5.5684 5.582-1.8285 1.6758-3.6396 3.3713-5.5742 4.9258-1.8454 1.4538-3.7622 2.8116-5.7578 4.0527-1.98 1.2233-4.0032 2.373-6.0977 3.3906-1.9201 0.91045-3.869 1.7618-5.8984 2.4023-1.7744 0.5467-3.5841 1.0074-5.4277 1.248-20.889 2.656-37.766-0.69801-55.918-4.2871-3.8605-0.85307-7.688-1.8215-11.502-2.8594-4.1189-1.1293-8.1619-2.5267-12.18-3.9688-2.9298-1.1079-5.7864-2.3869-8.6191-3.7227-0.80941-0.77264-1.6354-1.5241-2.4238-2.3184-2.7516-2.7912-5.2567-5.8121-7.6543-8.9082-2.3506-3.0938-4.4329-6.3748-6.4277-9.7051-2.0205-3.3734-3.8226-6.8655-5.4277-10.453-1.6069-3.7019-3.0127-7.4855-4.3125-11.305-1.2912-3.883-2.4504-7.8102-3.4824-11.77-1.0169-3.9993-1.8104-8.0448-2.4805-12.115-0.65063-4.0603-0.99513-8.1613-1.2344-12.264-0.25982-4.0987-0.31442-8.204-0.14843-12.307 0.18765-3.9946 0.67753-7.9569 1.3476-11.896 0.5402-3.7875 1.6989-7.3968 3.1348-10.926 1.4362-3.4972 3.2066-6.8388 5.0254-10.148 1.9382-3.5087 3.857-7.0332 5.7793-10.551 1.9678-3.6369 3.9777-7.2518 5.9707-10.875 2.0118-3.7402 4.1764-7.39 6.3144-11.059 2.1626-3.7719 4.3295-7.5452 6.4629-11.334 2.1698-3.8846 4.156-7.8617 6.1465-11.84 2.0522-4.0245 4.0068-8.0968 5.9844-12.158 2.0197-4.1633 3.9649-8.3696 5.8359-12.602 1.8967-4.27 3.7397-8.5584 5.5039-12.885 1.7116-4.3523 3.3791-8.7237 5.0957-13.074 1.7859-4.3194 3.3864-8.7062 4.9121-13.123 1.4691-4.3896 2.9286-8.7807 4.3691-13.18 1.5016-4.5919 2.8935-9.2228 4.4199-13.807 1.6394-4.7955 3.2118-9.6075 4.709-14.449 1.4968-4.7359 2.5696-9.5923 3.4746-14.471 0.83864-4.5903 1.3014-9.2312 1.6211-13.883 0.27064-4.4109 0.16249-8.8313-0.14063-13.236-0.27425-4.1811-1.0316-8.3001-1.9316-12.385-0.8924-3.9422-2.2465-7.7522-3.7012-11.516-1.4416-3.6467-3.2586-7.125-5.2285-10.51-1.9378-3.3617-4.1703-6.5301-6.5195-9.6133-2.4243-3.1109-4.9109-6.1712-7.4492-9.1895-2.6834-3.1058-5.4217-6.1649-8.0996-9.2754-2.7151-3.2482-5.6665-6.2828-8.627-9.3047-3.0352-3.1011-6.1149-6.1587-9.1699-9.2402-3.199-3.2859-6.4101-6.5632-9.6484-9.8105-3.3235-3.323-6.7729-6.5199-10.148-9.7891-3.3574-3.2828-6.7-6.5773-10.029-9.8887-3.3347-3.34-6.5668-6.7768-9.7402-10.27-3.1344-3.4971-6.098-7.143-9.0293-10.811-3.0287-3.7721-5.847-7.7076-8.6055-11.68-2.8642-4.1615-5.619-8.3956-8.2734-12.693-2.617-4.2513-5.013-8.6324-7.3301-13.053-2.2713-4.351-4.3478-8.7967-6.3438-13.279-1.9811-4.4096-3.7098-8.9203-5.3633-13.461-1.6145-4.491-3.0058-9.0609-4.3496-13.639-1.3608-4.5365-2.5012-9.1319-3.5098-13.758-0.99345-4.5138-1.6913-9.0832-2.2207-13.672-0.48824-4.4386-0.68694-8.8954-0.78906-13.357-0.12269-4.6219-0.036-9.2458 0.19141-13.863 0.30673-4.686 0.66356-9.365 0.95117-14.053 0.34281-4.4422 0.96948-8.8617 1.5371-13.279 0.55464-4.4403 1.275-8.8519 1.8809-13.285 0.6113-4.2756 0.86949-8.5844 0.95898-12.898 0.11187-4.0918-0.22359-8.1671-0.78906-12.215-0.54129-3.8418-1.6301-7.5658-2.8613-11.234-1.2554-3.5708-2.8801-6.9924-4.6094-10.354-1.7762-3.3617-3.7786-6.589-5.793-9.8105-1.9728-3.222-4.0391-6.392-6.0898-9.5645-2.1013-3.2552-4.1253-6.5515-6.0469-9.916-2.0266-3.4704-3.7222-7.1127-5.2793-10.812-1.569-3.8071-2.8136-7.733-3.9824-11.678-1.2114-3.8911-1.9959-7.8814-2.5098-11.918-0.47453-3.9672-0.42956-7.9593-0.1914-11.939 0.24539-3.8361 1.068-7.5939 1.9961-11.312 0.93752-3.6584 2.2062-7.21 3.6211-10.707 1.3659-3.3436 3.1045-6.5025 4.9629-9.5918 1.8332-3.0218 3.9966-5.8166 6.2715-8.5137 10.786-4.8338 18.771-6.952 24.643-6.9922z"/>
</g>
</svg>
