<svg xmlns="http://www.w3.org/2000/svg" viewBox="0 0 3302.97 1209.18"><defs><style>.cls-1{fill:#f7f7f7;}.cls-2{fill:red;}.cls-3{font-size:288px;fill:#d73030;font-family:Cinzel-Black, Cinzel;font-weight:800;}.cls-4,.cls-5,.cls-6{font-size:250px;}.cls-5{letter-spacing:-0.02em;}.cls-6{letter-spacing:0em;}</style></defs><title>modified</title><g id="Calque_1" data-name="Calque 1"><rect class="cls-1" x="1108.55" y="646.27" width="278.71" height="10.68"/><path class="cls-2" d="M2524.86,716.48a97.48,97.48,0,0,1-24.56-3.4,2.8,2.8,0,0,1-2.1-2.49c-1.9-23.77,3.43-42.68,15.86-56.23,15.72-17.12,43.12-25.91,81.45-26.13a3.82,3.82,0,0,1,2.17,1,2.81,2.81,0,0,1,.62,2.31c-6.88,37.72-20.29,63.18-39.88,75.68C2548.77,713.39,2537.53,716.48,2524.86,716.48Zm-21.19-8.36c20.65,5,38,3.09,51.72-5.64,17.65-11.26,30-34.32,36.73-68.57-34.9.68-59.75,8.84-73.91,24.26C2507.23,670.14,2502.35,686.94,2503.67,708.12Z" transform="translate(-944.84 -5.99)"/><path class="cls-2" d="M2475.12,716.48c-12.68,0-23.91-3.09-33.56-9.25-19.59-12.5-33-38-39.88-75.68a2.81,2.81,0,0,1,2.26-3.27,2.94,2.94,0,0,1,.51,0h0c38.33.22,65.73,9,81.45,26.13,12.42,13.55,17.76,32.46,15.85,56.23a2.79,2.79,0,0,1-2.1,2.49,97.41,97.41,0,0,1-24.55,3.4Zm-67.26-82.57c6.74,34.25,19.08,57.31,36.73,68.57,13.69,8.74,31.08,10.64,51.71,5.64,1.34-21.18-3.55-38-14.53-50C2467.61,642.75,2442.76,634.59,2407.86,633.91ZM2499,710.36h0Z" transform="translate(-944.84 -5.99)"/><path class="cls-2" d="M2501.78,711.13a2.79,2.79,0,0,1-1.63-.52c-19.43-13.81-30.49-30.06-32.87-48.29-3-23,7.86-49.68,32.33-79.18a2.9,2.9,0,0,1,4.34,0c24.47,29.5,35.35,56.14,32.33,79.18-2.38,18.23-13.44,34.48-32.86,48.29A2.83,2.83,0,0,1,2501.78,711.13Zm0-121.75c-21.91,27.18-31.64,51.46-28.92,72.22,2.11,16.1,11.83,30.64,28.92,43.24,17.08-12.6,26.81-27.14,28.92-43.24C2533.42,640.84,2523.69,616.56,2501.78,589.38Z" transform="translate(-944.84 -5.99)"/><rect class="cls-1" x="1723.04" y="640.4" width="278.71" height="10.68"/><path class="cls-1" d="M1093,654a10.37,10.37,0,0,1-1.31,14.61L1069.1,687l-4.14,3.5c-2.6,2.24-4.94,4.33-7.14,6.41-50.85,47.82-80.74,105.5-89.58,173.53l-2.64,21.7.43,18.94.17,8.86.48,4L969,946.61a197.11,197.11,0,0,0,3.14,20.92q20.25,95.16,94.42,158.22c59.69,50.8,129.5,73.34,208.67,67.87,53.06-3.61,102.06-21.94,146.59-54.39a263,263,0,0,0,48.73-45.31,10.37,10.37,0,1,1,16,13.21A283.62,283.62,0,0,1,1434,1156c-47.64,34.71-100.37,54.44-157.39,58.32-84.52,5.83-159.69-18.43-223.52-72.77-52.88-44.87-86.82-101.78-101.29-169.72l-.64-3.18c-1.22-6.32-2.06-12.48-3-21.78l-2-19.79-.61-5.11-.08-1.31L945,897.1c-.05-1.87-.09-3.64-.14-5.21a11.65,11.65,0,0,1,.08-1.56l2.21-18.17c8.73-74.74,41.07-138.26,96.45-190.34,3.05-2.87,6.27-5.73,10-8.86l3.5-2.91c4.61-3.77,17.27-14,21.3-17.35A10.37,10.37,0,0,1,1093,654Zm33.74-88.49c7.64.3,13.52,8.07,14.55,14.87l4.26,29.7,7.67,54.93c4,28.16,6.84,47.21,10,66.61l1.57,9.37c5.42,31.82,4,60.34-3.19,106.28l-6,36.62-1.53,9.82c-2.77,18.32-5.25,37.36-8.15,61.95l-4,34.83c-2.1,18.47,5.54,33.22,22.55,45.1,30.12,21.13,58.62,25.91,89.45,13.16a767.6,767.6,0,0,1,84.59-29.85c28.33-8.07,58.17-7,88.44,2.36l47.26,15.3c22.51,7.32,35.83,11.79,51.35,17.24,32.94,11.61,65.11,13.71,97.61,6.06l3.48-.86c29.86-7.66,57.82-8.79,85.66-2.63,15.93,3.53,33,2,53.26,3.71l4.1.39,3.85,9.64c-21,8.39-42.48,11-62.92,7.08l-2.78-.57c-23.35-5.17-46.92-4.49-72.37,1.57l-3.65.91c-37.74,9.68-75.21,7.63-113.13-5.73l-10.83-3.77c-12-4.12-24.32-8.21-42.83-14.21l-41.15-13.34c-27.68-9.09-54.49-10.37-79.68-3.2a748.59,748.59,0,0,0-82.33,29.07c-37.84,15.65-73.69,9.63-109.27-15.33-22.93-16-34.29-37.95-31.27-64.45l4-34.94c3.1-26.25,5.72-46.28,8.74-65.87l1.81-11.41,3.88-23.46,1.32-8.19c6.68-42.64,8.14-69,3.7-97.16l-3.54-21.5c-2.91-18.11-5.71-37.18-9.56-64.61l-10-71-.77-5.28-.49-.3a10.35,10.35,0,0,1-4.5-8v-1A10.37,10.37,0,0,1,1126.71,565.52Zm244.31.57,1,.29a10.37,10.37,0,0,1,6.33,13.23l-.2.57-.07,4.33c-1.07,68.14.58,116.45,6.85,164l.55,4.08c3.33,24.17,12.3,40.5,29.44,51.33l1.8,1.11a23.53,23.53,0,0,1,2.27,1.51l3,2.35,11.68,8.93c65.57,50.32,99.29,79,132.87,116l5.81,6.48c6.68,7.55,15.35,13.72,30.39,22.43l3.78,2.14c22,12.21,43.26,20,84.64,32.42l19,5.65,3.53,1.07c15.83,4.87,31.37,10.08,60.46,20.07,11.19,3.85,18.34,12.08,17.91,24.41-.38,10.84-5.78,16.27-15.56,20.48l-1.36.57c-.47.19-.66.26-1.76-1.81l-3.58-7.23-3.85-9.63,3.52-1.43c1.77-.77,1.83-1,1.86-1.67.07-2.13-.64-2.94-3.93-4.08l-30.35-10.33c-13-4.35-22.69-7.47-32.9-10.57l-22.41-6.69c-42.92-12.94-64.76-21.27-89.32-35.41l-5.39-3.17c-12.86-7.72-21.44-14-28.72-21.88l-7.08-7.87c-33.18-36.5-66.86-65-134-116.39l-8.17-6.24-2.49-2a2,2,0,0,0-.36-.24c-24.27-14.35-37-36.62-41.23-67.47-6.9-50.15-8.71-100.17-7.59-171l.1-6a27.69,27.69,0,0,1,1.65-6.6l-.26.73.33-.79A10.38,10.38,0,0,1,1371,566.09ZM1223.88,789.88a10.37,10.37,0,0,1,2.29,14.49c-9.29,12.78-14,27.93-15.29,47.09l-.14,2.46.12,2.72c.92,16.46,4.88,30.62,12.4,43l1.46,2.29a10.37,10.37,0,0,1-17.33,11.41c-10.7-16.25-16.14-34.8-17.27-55.91l-.13-3.19v-.83c1.16-24.29,7-44.16,19.4-61.2A10.38,10.38,0,0,1,1223.88,789.88Zm198.54-139.2c73.73,51.06,118,119.71,134.3,208.5a10.37,10.37,0,1,1-20.4,3.75c-15.3-83.4-56.5-147.27-125.71-195.19a10.37,10.37,0,0,1,11.81-17.06Z" transform="translate(-944.84 -5.99)"/><path class="cls-1" d="M3713.49,662.33a6.14,6.14,0,0,1,.51-.51l.07-.07c14.17-14.3,27-28.22,30.69-35.83,1.84-3.76,2.35-7,1.8-9.42a5,5,0,0,0-1.5-2.7,5.19,5.19,0,0,0-3-1.11c-2.76-.21-6.36.87-10.58,3.66l-.08,0-68.86,53.45a71.32,71.32,0,0,0-8.55,7.5,34.78,34.78,0,0,0-5.25,7.47c-12.09,22.49-25,55.06-36.89,84.93-3.89,9.79-7.67,19.32-10.33,25.85-3.09,7.58-5.39,25.22-7.15,47-1.81,22.46-3,48.75-3.87,73.2-1.35,38.11-18.34,69.44-44.28,95.9-25.53,26-59.71,47.3-96.08,65.66a5.34,5.34,0,1,1-4.81-9.53c35.46-17.91,68.7-38.54,93.28-63.61,24.16-24.66,40-53.69,41.23-88.8.89-24.89,2.08-51.49,3.87-73.65,1.83-22.81,4.35-41.52,7.9-50.22,4-9.74,7.1-17.64,10.33-25.77,12-30.23,25.09-63.19,37.4-86.06a44.58,44.58,0,0,1,6.83-9.68,79.8,79.8,0,0,1,9.85-8.68l69-53.57h0a1.94,1.94,0,0,1,.29-.21c6.46-4.33,12.5-6,17.52-5.59A15.22,15.22,0,0,1,3757,614.16c1.05,4.66.34,10.36-2.64,16.44a56.45,56.45,0,0,1-5.54,8.57,1.34,1.34,0,0,0,0,1.6,1.32,1.32,0,0,0,1.54.46,86.93,86.93,0,0,1,23.31-5.43,15.38,15.38,0,0,1,15,8.24,18.2,18.2,0,0,1,2.06,7.31,20.58,20.58,0,0,1-3.48,12.68c-2.85,4.31-11.47,9.08-21.39,14.56-10.79,6-23.27,12.87-29.12,19.25a5.33,5.33,0,1,1-7.86-7.19c7.09-7.74,20.36-15.08,31.83-21.42,8.69-4.81,16.24-9,17.64-11.09a10,10,0,0,0,1.71-6.13,7.32,7.32,0,0,0-.79-3,5.09,5.09,0,0,0-1.64-1.83,5.22,5.22,0,0,0-3.31-.76c-6.3.41-15.66,2.55-26.43,7.26a125.2,125.2,0,0,0-26.81,16.13l-.12.11c-8.54,8.62-17.44,17.25-25.2,24.76l-9.41,9.15c-5,4.85-7.78,20.14-9.43,38.71-1.74,19.51-2,42.32-2,61.07v2a1.34,1.34,0,0,0,2.57.53c6.8-15.51,11.65-29.44,16.49-43.36,3.53-10.14,7.06-20.27,11.13-30.55,3.09-7.83,6.83-13,10.74-16.07a15.17,15.17,0,0,1,20.06.3,27.41,27.41,0,0,1,7.91,12.58c3.58,11-.55,31.2-4.5,50.56l-.61,3c-8.7,42.82-6.88,98.09-5.37,144.31.2,6,.39,11.84.56,17.73,1,35.11-11.52,64.86-30.74,90.37-18.94,25.14-44.34,46.09-69.53,64-9,6.41-17.31,12.6-25.07,18.7s-14.81,12-21.33,17.67c-9,7.86-17.18,15.65-25.13,23.66s-15.66,16.26-23.43,24.86a5.33,5.33,0,0,1-7.9-7.15c8-8.87,15.79-17.2,23.77-25.24s16.45-16.08,25.67-24.16c6.86-6,14.05-12,21.75-18s16.14-12.36,25.48-19c24.43-17.37,49-37.63,67.19-61.75,17.88-23.73,29.54-51.29,28.61-83.64-.16-5.55-.36-11.54-.56-17.69-1.54-46.76-3.37-102.69,5.58-146.73l.61-3h0c3.67-18,7.51-36.79,4.79-45.16a16.84,16.84,0,0,0-4.65-7.69,5.31,5.31,0,0,0-3.12-1.41,5.39,5.39,0,0,0-3.47,1.36c-2.47,1.93-5,5.64-7.36,11.6-4.24,10.7-7.62,20.42-11,30.13-8.21,23.6-16.42,47.2-33.91,78.38a.6.6,0,0,0-.06.11,29.31,29.31,0,0,1-3.16,5.53.75.75,0,0,0-.07.12q-1.45,2.49-3,5a5.34,5.34,0,1,1-9.16-5.48c1-1.68,2-3.35,2.94-5l0-.06c.08-.15.17-.31.26-.45l0-.06c.87-1.5,1.71-3,2.54-4.45l.07-.14c3.75-9,3.69-22.85,3.65-33.32,0-1,0-2,0-2.93,0-19,.25-42.07,2-62,1.86-20.85,5.53-38.5,12.57-45.4,2.9-2.83,6.07-5.9,9.46-9.19,7.74-7.5,16.65-16.14,25.12-24.67l.06-.07ZM3860.7,813a3.34,3.34,0,0,1,6.66-.42,29.58,29.58,0,0,1-16.2,28.25,3.34,3.34,0,0,1-3-6A23,23,0,0,0,3860.7,813Zm-29,253a33.86,33.86,0,0,1-40-25.34l-.14-.62v0a33.84,33.84,0,0,1,25.33-40l.62-.14h0a33.84,33.84,0,0,1,40,25.33l.14.62v0a33.84,33.84,0,0,1-25.33,40l-.62.15Zm-19.26-13.4a23.12,23.12,0,0,0,17.49,2.84h0a23.07,23.07,0,0,0,17.19-27.8v0a23.08,23.08,0,0,0-27.8-17.18h0a23.08,23.08,0,0,0-17.18,27.8h0a23,23,0,0,0,10.31,14.35Zm55.5,84.86a27.64,27.64,0,1,1,17.16-12.36,27.48,27.48,0,0,1-17.16,12.36ZM3852.75,1125a17,17,0,1,0-7.55-10.51,16.89,16.89,0,0,0,7.55,10.51Zm60.51,54.29a21.46,21.46,0,0,1-25.07-16.11l-.14-.62v0a21.44,21.44,0,0,1,16.1-25.07l.63-.15h0a21.46,21.46,0,0,1,25.07,16.11l.14.59v.08a21.43,21.43,0,0,1-16.1,25.07l-.63.15Zm-9.88-11.87a10.76,10.76,0,0,0,8.13,1.31h0a10.69,10.69,0,0,0,8-12.9h0a10.69,10.69,0,0,0-12.89-8h0l-.29.08a10.7,10.7,0,0,0-7.68,12.83h0A10.68,10.68,0,0,0,3903.38,1167.38Zm252.34-28.65a3.33,3.33,0,0,1-4.65,4.78c-5-4.87-9.92-9.56-15-14.17s-10.15-9-15.43-13.38a3.33,3.33,0,0,1,4.23-5.15c5.51,4.52,10.67,9,15.7,13.59s10,9.32,15.14,14.33ZM3976.18,661.82a6.14,6.14,0,0,1,.51.51l.06.07c8.47,8.53,17.38,17.17,25.12,24.67,3.39,3.29,6.56,6.36,9.46,9.19,7.07,6.94,10.75,24.64,12.6,45.55,1.75,19.78,2,43,2,62.12v.61c0,10.67,0,26.43,4,36a.91.91,0,0,0,.07.14c1.72,3,3.53,6.16,5.44,9.36a5.33,5.33,0,1,1-9.15,5.48q-1.42-2.37-2.77-4.69l-.07-.11a28.39,28.39,0,0,1-2.82-4.92l-.05-.1c-17.88-31.66-26.18-55.51-34.47-79.36-3.38-9.71-6.76-19.43-11-30.13-2.36-6-4.88-9.67-7.36-11.6a4.6,4.6,0,0,0-6.59,0,16.84,16.84,0,0,0-4.65,7.69c-2.72,8.37,1.12,27.16,4.79,45.16h0l.61,3c9,44,7.12,100,5.58,146.73-.2,6.15-.4,12.15-.56,17.69-.93,32.35,10.73,59.91,28.61,83.64,18.17,24.12,42.76,44.38,67.19,61.75,9.34,6.64,17.77,12.93,25.48,19s14.9,12,21.76,18c9.21,8.08,17.6,16,25.67,24.16s15.75,16.37,23.77,25.24a5.33,5.33,0,0,1-7.91,7.15c-7.77-8.6-15.41-16.78-23.43-24.86s-16.16-15.8-25.13-23.66c-6.52-5.71-13.56-11.56-21.33-17.67s-16.05-12.29-25.07-18.7c-25.19-17.92-50.59-38.87-69.53-64-19.22-25.51-31.76-55.26-30.74-90.37.17-5.89.36-11.74.56-17.73,1.52-46.22,3.33-101.49-5.37-144.31l-.61-3c-3.95-19.36-8.07-39.55-4.5-50.56a27.5,27.5,0,0,1,7.91-12.58,15.17,15.17,0,0,1,20.06-.3c3.91,3,7.65,8.24,10.75,16.07,4.06,10.28,7.59,20.41,11.12,30.55,4.84,13.93,9.69,27.86,16.5,43.37a1.34,1.34,0,0,0,2.56-.54v-1.74c0-18.64-.23-41.43-2-61.2-1.65-18.65-4.49-34-9.43-38.86-2.76-2.7-6-5.82-9.41-9.15-7.76-7.51-16.66-16.14-25.2-24.76l-.12-.11a125.2,125.2,0,0,0-26.81-16.13c-10.77-4.71-20.13-6.85-26.43-7.26a5.22,5.22,0,0,0-3.31.76,5,5,0,0,0-1.63,1.83,7.17,7.17,0,0,0-.8,3,10,10,0,0,0,1.71,6.13c1.4,2.11,8.95,6.28,17.64,11.09,11.47,6.34,24.74,13.68,31.83,21.42a5.33,5.33,0,1,1-7.86,7.19c-5.85-6.38-18.33-13.28-29.12-19.25-9.92-5.48-18.54-10.25-21.39-14.56a20.5,20.5,0,0,1-3.47-12.68,18,18,0,0,1,2.05-7.31,15.38,15.38,0,0,1,15-8.24,86.93,86.93,0,0,1,23.31,5.43,1.34,1.34,0,0,0,1.53-2.06,57.24,57.24,0,0,1-5.54-8.57c-3-6.08-3.69-11.78-2.64-16.44a15.46,15.46,0,0,1,4.94-8.43,15.67,15.67,0,0,1,9.22-3.7c5-.38,11.06,1.26,17.51,5.59a1.94,1.94,0,0,1,.29.21h0l69,53.57a79.8,79.8,0,0,1,9.85,8.68,45,45,0,0,1,6.84,9.68c12.3,22.87,25.39,55.83,37.39,86.06,3.23,8.13,6.36,16,10.33,25.77,3.55,8.7,6.07,27.41,7.91,50.22,1.78,22.16,3,48.76,3.86,73.65,1.25,35.11,17.07,64.14,41.23,88.8,24.58,25.07,57.82,45.7,93.28,63.61a5.34,5.34,0,0,1-4.81,9.53c-36.37-18.36-70.55-39.62-96.08-65.66-25.94-26.46-42.93-57.79-44.28-95.9-.87-24.45-2.06-50.74-3.87-73.2-1.76-21.82-4.06-39.46-7.15-47-2.66-6.53-6.44-16.06-10.33-25.85-11.86-29.87-24.8-62.44-36.89-84.93a34.78,34.78,0,0,0-5.25-7.47,71.32,71.32,0,0,0-8.55-7.5l-68.86-53.45-.08,0c-4.22-2.79-7.82-3.87-10.58-3.66a5.19,5.19,0,0,0-3,1.11,5,5,0,0,0-1.5,2.7c-.55,2.42,0,5.66,1.8,9.42,3.73,7.61,16.52,21.53,30.69,35.83l.07.07Zm-14.88,115.7Zm-127.81-6.65a46.23,46.23,0,1,1-28.7,20.66,46,46,0,0,1,28.7-20.66Zm29.27,14.77a35.54,35.54,0,1,0,15.86,22.06,35.42,35.42,0,0,0-15.86-22.06Zm-15.41-118.55h0a29.32,29.32,0,1,0,35.26,21.81h0a29.27,29.27,0,0,0-35.24-21.8Zm-1.78-10.56A40,40,0,0,1,3893,686.47l.14.62v0a40,40,0,1,1-48.23-30.45l.62-.14Zm-12.1-88.72h0a23.09,23.09,0,0,0-17.19,27.8h0a23.08,23.08,0,0,0,27.8,17.19h0a23.09,23.09,0,0,0,17.19-27.8v0a23.08,23.08,0,0,0-27.79-17.18Zm-1.77-10.56a33.86,33.86,0,0,1,40,25.33l.15.63v0a33.84,33.84,0,0,1-25.34,40l-.62.15h0a33.84,33.84,0,0,1-40-25.33l-.15-.63v0a33.82,33.82,0,0,1,25.33-40l.62-.15Zm-36.24-71.46a27.64,27.64,0,1,1-17.16,12.35A27.5,27.5,0,0,1,3795.46,485.79Zm15.23,12.49a17,17,0,1,0,7.54,10.51,16.92,16.92,0,0,0-7.54-10.51Zm8.53,456.08h0A29.26,29.26,0,0,0,3841,919.12h0A29.31,29.31,0,1,0,3784,932.55h0a29.28,29.28,0,0,0,35.25,21.8Zm1.78,10.56A40,40,0,0,1,3773.56,935l-.15-.62v0a40,40,0,0,1,78-17.72l0,.08a40,40,0,0,1-29.66,48l-.11,0-.24.07a1.2,1.2,0,0,1-.42.07Zm-281.89,178.59a3.33,3.33,0,0,1-4.65-4.78c5.13-5,10.12-9.76,15.14-14.33s10.19-9.07,15.7-13.59a3.34,3.34,0,0,1,4.24,5.15c-5.29,4.34-10.38,8.77-15.44,13.38S3544.11,1138.64,3539.11,1143.51Zm189.77-366c.15-.7.06-.31,0,0Z" transform="translate(-944.84 -5.99)"/></g><g id="Calque_2" data-name="Calque 2"><text class="cls-3" transform="translate(171.09 239.9) scale(1 0.98)">P<tspan class="cls-4" x="203.61" y="0">ARAME</tspan><tspan class="cls-5" x="1170.6" y="0">D</tspan><tspan class="cls-6" x="1376.1" y="0">I-</tspan><tspan x="1575.6" y="0">C</tspan><tspan class="cls-4" x="1803.98" y="0">ARS</tspan><tspan class="cls-5" x="2343.48" y="0">O</tspan><tspan class="cls-4" x="2564.73" y="0">EL</tspan></text></g></svg>