<?xml version="1.0" encoding="UTF-8"?>
<svg xmlns="http://www.w3.org/2000/svg" xmlns:xlink="http://www.w3.org/1999/xlink" width="400px" height="800px" viewBox="0 0 400 800" version="1.1">
<g id="surface1">
<path style=" stroke:none;fill-rule:nonzero;fill:rgb(0%,0%,0%);fill-opacity:1;" d="M 229.3125 1.5 C 227.75 2.3125 225.9375 3.25 225.3125 3.625 C 224.625 4 222.5 4.625 220.625 5 C 216.5 5.8125 213.125 7.6875 213.125 9.1875 C 213.125 9.8125 213.6875 11.1875 214.375 12.3125 L 215.5625 14.3125 L 212.9375 15.0625 C 210.875 15.625 209.4375 15.5625 205.75 14.75 C 200.0625 13.5 196.3125 13.5 194.5625 14.6875 C 192.6875 16 192.0625 19.5625 193.375 21.5625 C 194.8125 23.75 197.5625 23.5625 203.4375 20.875 C 208.75 18.4375 213.3125 16.875 215.4375 16.875 C 216.4375 16.875 217 17.5625 217.8125 19.625 C 218.75 22.0625 218.75 22.5 217.9375 24.1875 C 216.625 26.6875 215.3125 27.625 212.625 28.0625 C 210.5625 28.4375 210.3125 28.6875 210.125 30.5 C 209.875 32.8125 209.75 32.8125 206.6875 31.5625 C 203.8125 30.375 199.5 30.375 196.6875 31.5625 C 191.5 33.6875 185.8125 42.875 185.1875 50 C 184.5625 56.5625 187.3125 57.375 194.1875 52.75 C 202.625 47.0625 207.9375 45.0625 209.8125 46.9375 C 210.3125 47.4375 210.25 48.0625 209.5 49.3125 C 207.0625 53.5625 211.1875 54.5625 214.5625 50.5625 C 216.8125 47.8125 218.125 47.75 218.125 50.25 C 218.125 52.5 215.125 54.75 210.9375 55.5625 C 200.5 57.5625 191.875 65.0625 190.8125 73.0625 C 190.5625 74.6875 190.8125 75.625 191.4375 76.1875 C 192.25 76.8125 193 76.4375 196.25 73.4375 C 202.375 67.8125 208.5 65.625 212.75 67.5625 C 213.875 68.125 214.3125 68.875 214.5 70.6875 C 214.6875 73 214.625 73.125 213.0625 73.125 C 211.6875 73.125 210.875 73.875 208.5625 77.4375 C 205.9375 81.3125 205.4375 81.75 202.6875 82.4375 C 195.125 84.375 188.125 90 188.125 94.25 C 188.125 96.3125 188.1875 96.375 190 96 C 191.0625 95.8125 194.75 93.8125 198.25 91.5625 C 204.375 87.625 204.75 87.5 208.5625 87.5 C 210.75 87.5 212.5 87.75 212.5 88.0625 C 212.5 90.25 210.9375 92.5 208.9375 93.1875 C 207.75 93.5625 205.875 94.6875 204.6875 95.6875 C 203.25 96.9375 201.3125 97.75 198.1875 98.4375 C 191.125 99.9375 187.8125 102 185.5625 106.375 C 184.1875 109 184 112.5 185.125 113.625 C 187.0625 115.5625 192.5625 114 199.6875 109.375 C 204.3125 106.4375 206.625 105.625 206.0625 107.1875 C 205.8125 107.75 205.625 108.3125 205.625 108.4375 C 205.625 108.5625 204.375 109.25 202.8125 109.9375 C 201.25 110.625 198.375 112.3125 196.375 113.6875 C 194.4375 115.0625 190.1875 117.375 186.9375 118.75 C 179.6875 121.8125 178.125 123.1875 178.125 126.3125 C 178.125 128.1875 178.5625 129 180.125 130.3125 C 181.875 131.8125 182.5625 132 185.625 131.75 C 188.4375 131.5625 190.125 130.875 194.0625 128.5625 C 199.125 125.5625 201.4375 125.0625 206.125 126 C 209.375 126.625 207.9375 128.0625 204.1875 127.9375 C 201.375 127.8125 199.8125 128.3125 192.8125 131.6875 C 181.625 137 180.5625 137.25 175.375 136 C 167.625 134 157.4375 136.375 152.9375 141.0625 C 148.5 145.8125 150.1875 152.5 155.875 152.5 C 160.8125 152.5 169.3125 149.125 175.5 144.75 C 181.5 140.5 190.5 137.125 192 138.625 C 192.75 139.375 184.125 145.25 178.5 147.875 C 165.625 153.8125 151.75 157.125 149.5 154.875 C 148.1875 153.5625 146.6875 155.8125 146.375 159.5625 C 145.9375 165.375 147.6875 166.8125 152.4375 164.375 C 158 161.5625 171.625 159.125 174.0625 160.5 C 175 161 174.75 161.1875 172.75 161.5 C 169.6875 162.125 166.4375 164.0625 165.9375 165.6875 C 165.6875 166.375 165.6875 168 165.9375 169.375 C 166.75 174.125 165.0625 175.625 158.75 175.625 C 156.75 175.625 154.3125 175.9375 153.3125 176.3125 C 152.375 176.6875 148.9375 177.25 145.75 177.5625 C 139.125 178.125 136.8125 179 136 181.3125 C 134.6875 185.0625 137.5 190.625 140.75 190.625 C 141.5625 190.625 144.25 189.625 146.8125 188.4375 C 149.3125 187.25 151.5 186.25 151.75 186.25 C 151.9375 186.25 151.375 187.0625 150.4375 188 C 147.4375 191.125 147.0625 195.3125 149.5625 197.375 C 150.0625 197.8125 151.5625 198.5 152.875 199 C 154.1875 199.5 154.8125 199.9375 154.25 199.9375 C 151.5 200.0625 144.875 203.4375 141.3125 206.5 C 139.25 208.3125 136.125 210.4375 134.4375 211.25 C 132 212.375 131.125 213.1875 130.375 215.0625 C 128.0625 220.75 128.5625 225 131.5 225 C 133.1875 225 137.3125 222.125 139.3125 219.6875 C 140.0625 218.6875 140.6875 218.0625 140.8125 218.1875 C 144.5625 224.6875 146.25 228.4375 146.25 230.625 C 146.25 233.5625 145.25 234.75 142.0625 235.5625 C 134.8125 237.5 123.8125 250.125 123.75 256.625 C 123.75 258.875 125.375 260.625 127.4375 260.625 C 128.5 260.625 128.8125 260.875 128.5 261.625 C 126.1875 267.625 123.5625 280.1875 124.1875 282.375 C 124.375 283.1875 123.875 284.4375 122.9375 285.75 C 118.875 291.1875 118.1875 296 121 299.3125 C 124.375 303.3125 128.5625 301.1875 130.5625 294.5 C 131.875 290.125 133.375 287.5 134.5 287.5 C 135.625 287.5 134.625 298.375 132.9375 305 C 131.5 310.5 131.125 311.1875 127.9375 314.4375 C 120.25 322.3125 118.375 336.875 125.0625 336.875 C 127.1875 336.875 130.3125 333.4375 131.25 330.125 C 132.1875 326.625 134.375 323.6875 137.1875 322.0625 C 140.875 320 141.5625 320.9375 141.5625 328.3125 C 141.5625 335.375 140 340.875 137.5625 342.375 C 136.6875 342.875 135.25 344 134.375 344.75 C 133.5 345.5 132.25 346.25 131.5625 346.375 C 130.5625 346.5625 130.3125 347.125 130.25 349.375 C 130.25 350.9375 129.5625 354.5625 128.75 357.5 C 126.6875 364.75 126.5625 373.125 128.5 375.0625 C 131 377.5 133.4375 374.75 136 366.75 C 137.375 362.1875 139.3125 360.1875 141.25 361.25 C 142 361.625 143.3125 361.8125 144.125 361.625 C 145.4375 361.25 145.625 361.4375 145.625 362.9375 C 145.625 367.1875 142.3125 379.25 139.625 384.6875 C 136.0625 391.9375 135.125 396.1875 136.1875 400.8125 C 137 404.4375 138.875 407.5 140.25 407.5 C 141.9375 407.5 143.625 404.3125 144.6875 399.1875 C 144.9375 397.875 145.25 397.5625 145.8125 397.9375 C 146.25 398.25 147.9375 399.0625 149.625 399.625 C 151.9375 400.5 152.8125 401.25 153.5 402.875 C 154.75 405.875 154.625 407.0625 152.75 408.8125 C 148.875 412.4375 146.3125 419.9375 146.25 427.625 C 146.25 434.125 148.375 436.0625 151.875 432.625 L 153.625 430.875 L 157.875 432.3125 C 163.4375 434.1875 165.625 436.1875 166.875 440.75 C 167.375 442.25 167.125 442.875 165 445.3125 C 161.625 449.25 160.4375 452.75 160.75 458.0625 C 160.875 461.1875 161.3125 462.75 162.125 463.6875 C 164.25 466.0625 166.8125 465.25 169.375 461.375 C 170.25 460.125 170.5 460.0625 172.8125 460.6875 C 176.125 461.625 179.875 461 184.3125 458.8125 C 188.4375 456.6875 189.5625 457 190.375 460.25 C 190.75 461.875 190.6875 462 189.625 461.5625 C 185.25 459.75 181.375 461.125 176.6875 466.1875 C 170.5 472.9375 168.9375 478.8125 171.9375 484.625 C 172.75 486.3125 174.1875 488.25 175.0625 488.9375 C 176.5625 490 176.875 490.0625 178.5625 489.1875 C 179.5625 488.625 182 486.375 184 484.125 C 186 481.875 187.8125 480 188.0625 480 C 188.9375 480 192.25 485.3125 193 487.875 C 193.4375 489.3125 194.1875 490.8125 194.6875 491.25 C 195.6875 492.0625 194.5625 493.0625 187.1875 497.875 C 178.9375 503.25 176.1875 508.875 179.75 513.0625 C 182.5625 516.4375 186.375 515.25 190.9375 509.75 C 192.1875 508.1875 193.6875 506.875 194.1875 506.875 C 195.4375 506.875 203.125 514.375 203.125 515.5625 C 203.125 516.125 203.5625 517.25 204.125 518 C 204.6875 518.8125 205 519.5625 204.8125 519.75 C 204.1875 520.4375 197.25 522.5625 192.0625 523.6875 C 177.8125 526.75 174.375 531.8125 181.375 539 C 183.625 541.25 185.5 542.625 187.1875 543.0625 C 190.75 544 196.5 543.9375 199.1875 542.8125 C 202 541.625 201.875 541.625 201.875 543.4375 C 201.875 544.8125 201.625 545 199.5625 545 C 193.3125 545.0625 184.5625 548.4375 181.625 551.875 C 179.3125 554.6875 179.5625 556.75 182.6875 561 C 189.75 570.5625 197.125 573.5 203.5 569.125 C 206.1875 567.3125 209.125 567 211.8125 568.375 C 214.3125 569.6875 218.125 574.125 218.125 575.8125 L 218.125 577.1875 L 204.0625 577 C 188.0625 576.75 183.875 577.3125 181.875 579.8125 C 180.0625 582.125 180.3125 584.6875 182.75 589.6875 C 187.875 600.25 195.0625 602.1875 203.5 595.3125 C 205.1875 593.875 206.8125 593.125 208 593.125 C 210.8125 593.125 211.25 594.125 210.375 598.125 C 209.625 601.4375 209.5625 601.5625 205.5625 603.5625 C 202.3125 605.1875 200.25 605.75 195 606.3125 C 186 607.25 185.9375 607.3125 185.9375 616.75 C 185.9375 622.9375 186.125 624.375 187.1875 626.1875 C 189.75 630.5625 193.5625 630.0625 202.25 624.25 C 204.8125 622.5625 207.125 621.3125 207.4375 621.5 C 207.6875 621.6875 207.4375 623.75 206.8125 626.0625 C 206.125 628.375 205.625 631.4375 205.625 632.8125 C 205.625 635.25 205.5625 635.3125 202 636.75 C 196.1875 639.1875 192.5 640 187.8125 640 C 182.625 640 181.1875 640.75 179.25 644.5625 C 177.3125 648.375 176.25 652.875 176.25 657.3125 C 176.25 660.5 176.5 661.5 177.75 662.875 C 179.125 664.5 179.375 664.5625 181.625 663.875 C 183 663.5 186.4375 661.25 189.3125 658.875 L 194.5625 654.5625 L 196.625 655.875 C 197.75 656.625 198.6875 657.4375 198.75 657.75 C 198.8125 659.1875 191.5625 665.25 187.6875 667.0625 C 184.1875 668.6875 182.5 669 177.1875 669.3125 C 173.1875 669.5625 170.4375 670 169.8125 670.5625 C 169 671.1875 168.75 672.5 168.75 676.5625 C 168.75 681.5625 168.6875 681.8125 166.875 683.3125 C 165.875 684.1875 163 685.625 160.5 686.5625 C 146.8125 691.75 145 693.75 144.375 704.375 C 143.9375 711.5 143.375 713.0625 139.375 718.4375 C 136 722.875 135.9375 723.625 137.875 730.125 C 139.25 734.9375 139.5625 737.25 139.625 743.75 C 139.75 753.625 140.375 755.3125 148.875 768.25 C 152.4375 773.6875 157.125 780.9375 159.375 784.4375 C 164.875 793.0625 168.6875 797 173.3125 798.6875 C 180.6875 801.375 183.875 799.6875 180.6875 794.6875 C 180 793.625 176.75 789.6875 173.4375 785.9375 C 162.1875 773.0625 159.1875 767.375 159.25 758.75 C 159.375 745.75 164.875 734.75 173.5625 730.1875 C 175.5625 729.125 181.125 727.0625 185.9375 725.625 C 208.625 718.875 220.6875 713.8125 226.625 708.625 C 230.3125 705.375 230.8125 703.8125 230.3125 696.8125 L 229.875 690.625 L 240.625 690.625 L 243.5625 687.375 C 245.25 685.5625 248.25 682.375 250.25 680.1875 C 252.3125 678 253.75 676.0625 253.5625 675.875 C 253.3125 675.625 253.75 674.75 254.375 673.875 C 255.0625 673.0625 255.625 671.9375 255.625 671.5 C 255.625 671.0625 257.125 668.625 259 666 C 260.8125 663.4375 262.5 660.625 262.75 659.75 C 262.9375 658.875 264 656.8125 265.0625 655.0625 C 266.6875 652.4375 267 651.5 266.6875 649.375 C 266.4375 647.25 266.8125 645.9375 269.125 641.25 C 270.625 638.1875 272.375 634.875 273.0625 633.9375 C 273.8125 632.8125 274.375 630.625 274.625 627.8125 C 274.875 625.375 275.625 620.25 276.25 616.3125 C 277.75 607.75 277.75 606.5 276.5 604.0625 C 275.0625 601.3125 276.0625 591.25 277.8125 591.25 C 280 591.25 280.3125 589.4375 280.0625 577.875 C 279.875 565.9375 279.3125 562.9375 277 562.25 C 275.875 561.875 275.6875 561.125 275.4375 555.4375 C 275.25 551.9375 275.125 546.0625 275.125 542.4375 C 275.125 536.625 274.9375 535.4375 273.5625 532.75 C 272.75 531.0625 271.875 528.6875 271.6875 527.5 C 271.125 524 270.0625 521.75 268.75 521.4375 C 267.9375 521.1875 267.1875 520 266.4375 517.75 C 265.5625 514.875 265.5 514.1875 266.25 512.8125 C 267 511.4375 267 510.8125 266.3125 509.1875 C 265.875 508.0625 264.4375 503.9375 263.0625 500 C 261.6875 496.0625 260.25 492.3125 259.875 491.5625 C 258.75 489.375 256.0625 486.875 254.875 486.875 C 253.5 486.875 250 479.6875 250 476.875 C 250 475.25 249.1875 473.3125 244.0625 462.0625 C 242.8125 459.4375 241.3125 457.125 240.3125 456.5 C 237.9375 454.9375 235.4375 449.6875 235.8125 447.125 C 236.0625 445.625 235.625 443.9375 234 440.625 C 231.125 434.625 227.625 429.375 225.875 428.625 C 225 428.1875 223.625 426 221.9375 422.25 C 220.5 419.125 219.375 416.1875 219.375 415.75 C 219.375 415.3125 219.125 414.5 218.8125 413.875 C 218.4375 413.3125 217.6875 411.3125 217.125 409.4375 C 216.4375 407.0625 215.25 405.1875 213.3125 403.25 C 210.3125 400.25 206.5625 392.5 207.125 390.4375 C 207.6875 388.25 200.5625 368.9375 198.8125 367.8125 C 197.75 367.1875 194.75 356.6875 194.6875 353.4375 C 194.6875 351.625 194.0625 349.0625 193.25 347.375 C 192.5 345.75 191.875 344.0625 191.875 343.625 C 191.875 343.125 191.4375 342.125 190.875 341.3125 C 190.125 340.3125 190.0625 339.75 190.5 339.4375 C 191 339.125 190.9375 337.9375 190.375 335.3125 C 189.875 333.25 189.3125 327.75 189.125 323.125 C 188.5625 312.0625 188.3125 310.6875 186.5625 310 C 185.25 309.5 185.125 308.875 184.6875 303.625 C 184.4375 300.4375 184 297.5 183.75 297.1875 C 183.5 296.8125 183.125 292.75 183 288 C 182.8125 281.4375 182.5 279.125 181.6875 277.875 C 180.1875 275.625 180.3125 273.875 182 273.625 C 182.875 273.5 183.5 272.8125 183.8125 271.75 C 184.5 269.125 184.5 254.5625 183.8125 253.25 C 183 251.75 184.0625 247.5 185.25 247.5 C 186.4375 247.5 188 245.5625 188.875 243.0625 C 189.25 241.875 190.25 240.3125 191.125 239.5 C 192.375 238.3125 192.5625 237.6875 192.1875 236.0625 C 190.6875 229.5625 190.75 228.125 192.625 224.75 C 193.625 223 195.125 220.625 195.9375 219.5625 C 197.375 217.5 198.75 211.5625 198.75 207.375 C 198.75 205.875 199.625 203.5625 201.375 200.5 C 202.8125 198 204.75 194.125 205.8125 191.875 C 206.875 189.5 208.6875 186.8125 210.125 185.5 C 211.75 183.9375 212.5 182.8125 212.25 182.1875 C 212.0625 181.5625 212.8125 179.75 214.0625 177.75 C 215.3125 175.875 217.125 171.6875 218.125 168.5 C 219.875 163 221.375 160.625 223 160.625 C 224.3125 160.625 223.8125 159.6875 221.9375 158.5625 L 220.0625 157.5 L 221.75 154.6875 C 222.6875 153.1875 223.9375 151.8125 224.5625 151.6875 C 225.9375 151.25 228.0625 146.5625 228.125 143.8125 C 228.125 142.4375 229.0625 140.1875 230.9375 137.1875 C 232.5 134.6875 233.75 132.375 233.6875 132.125 C 233.625 131.8125 233.875 130.75 234.25 129.8125 C 234.6875 128.8125 235 125.8125 235 123.125 C 235 118.5 234.8125 117.875 231.875 112 C 228.875 105.9375 224.9375 101.25 222.875 101.25 C 222.4375 101.25 221.25 102.375 220.3125 103.75 C 219.375 105.125 218.4375 106.125 218.3125 106 C 218.1875 105.875 218.25 104.75 218.4375 103.5 C 218.875 101.25 221.75 97.5 223.0625 97.5 C 223.4375 97.5 224.3125 98.625 225 100 C 225.75 101.4375 226.9375 102.8125 227.6875 103.0625 C 229.9375 103.9375 231.5625 106.25 233.75 111.6875 C 234.875 114.5625 235.9375 116.875 236.1875 116.875 C 236.375 116.875 237.5 115.3125 238.625 113.4375 L 240.6875 110 L 240.5625 102.3125 C 240.375 95.3125 240.5 94.375 241.75 92.4375 C 242.8125 90.6875 243.0625 89.25 243.125 85.25 C 243.125 82.5625 243.125 72.875 243.125 63.8125 C 243.1875 49.9375 243.375 47 244.1875 45.375 C 245.6875 42.5 245.5 35.8125 243.8125 32.375 C 242.9375 30.5625 242.5 28.4375 242.5 26.0625 C 242.5 23.4375 242.25 22.375 241.5625 22.125 C 240.875 21.875 240.625 20.8125 240.625 18.625 C 240.625 16.1875 241 15.0625 242.1875 13.625 C 244.0625 11.375 244.0625 11.125 242.4375 7.5 C 241 4.25 239.125 2.125 236.75 0.875 C 234.375 -0.375 232.4375 -0.1875 229.3125 1.5 Z M 228.0625 44.75 C 228.125 44.8125 228.125 45.1875 228.0625 45.5625 C 227.9375 45.875 226.8125 45.625 225.625 44.9375 L 223.4375 43.6875 L 225.625 44.125 C 226.8125 44.3125 227.9375 44.625 228.0625 44.75 Z M 229.375 62.5 C 229.375 63.3125 229 63.5 227.75 63.25 C 226.6875 63.0625 225.6875 63.4375 224.5625 64.4375 L 222.9375 65.9375 L 223.375 63.4375 C 223.625 62.0625 224.125 59.9375 224.5 58.75 L 225.1875 56.625 L 227.25 59.0625 C 228.4375 60.375 229.375 61.9375 229.375 62.5 Z M 229.1875 74.5 C 229 75 228.8125 74.8125 228.8125 74.125 C 228.75 73.4375 228.9375 73.0625 229.125 73.3125 C 229.3125 73.5 229.375 74.0625 229.1875 74.5 Z M 225.4375 81.25 C 226.3125 81.9375 227.5 82.5 228.0625 82.5 C 228.75 82.5 229.375 83.375 229.75 85 C 230.625 88.0625 230.1875 88.5625 228.625 86.5625 C 226.375 83.6875 225.125 83.4375 223 85.4375 L 221.125 87.1875 L 221.5625 84.0625 C 222.1875 79.4375 222.6875 79.0625 225.4375 81.25 Z M 219.5 119.8125 C 220.125 120.375 220.625 121.5625 220.625 122.4375 C 220.625 123.375 221 124.6875 221.5 125.375 C 222.25 126.4375 226.8125 137.1875 227.9375 140.625 C 228.125 141.125 227.625 140.75 226.8125 139.8125 C 226 138.875 223.9375 137.3125 222.1875 136.375 C 219.5625 134.9375 219 134.375 218.875 132.75 C 218.75 131.25 219.0625 130.5 220.3125 129.5 C 223.75 126.75 220.375 124.0625 215.9375 125.875 C 214.625 126.4375 213.4375 126.75 213.3125 126.625 C 213.125 126.4375 213.4375 125.5625 214 124.5625 C 214.5 123.625 215.4375 121.875 216 120.75 C 217.25 118.5 217.875 118.3125 219.5 119.8125 Z M 212.1875 138.1875 C 211.1875 140 211.25 140.25 213.375 145.1875 C 216.25 152 217.5 155.125 217.5 155.375 C 217.5 155.8125 214.1875 153.625 211.1875 151.1875 C 209 149.4375 208 148.9375 206.6875 149.1875 C 205.75 149.375 205 149.3125 205 149 C 205 148.75 206.1875 145.75 207.625 142.375 C 209.875 137.1875 210.5 136.25 211.75 136.25 C 213.125 136.25 213.125 136.3125 212.1875 138.1875 Z M 190.3125 156.8125 C 190.6875 157.4375 188.75 158.75 187.5 158.75 C 187 158.75 187 158.375 187.5 157.5 C 188.1875 156.1875 189.6875 155.8125 190.3125 156.8125 Z M 198.375 158.0625 C 198.5625 158.375 198.3125 159.375 197.875 160.375 C 196.6875 162.5 197.3125 163.8125 200.625 166.125 C 202.6875 167.5625 208.125 175.625 207.0625 175.625 C 206.875 175.625 204.6875 174.5 202.1875 173.125 C 199.6875 171.75 197.0625 170.625 196.375 170.625 C 194.9375 170.625 191.875 167.3125 191.875 165.75 C 191.875 162.875 193.25 160.0625 195.1875 158.875 C 197.5 157.375 197.9375 157.3125 198.375 158.0625 Z M 184.8125 180.1875 C 186.0625 181.3125 186.125 181.5625 185.375 183.0625 C 183.1875 187.4375 184.1875 190.6875 188.125 191.5625 C 189.4375 191.875 190.8125 193.125 193.125 196.3125 L 196.25 200.625 L 192 198.3125 C 189.6875 197.0625 187.3125 195.5 186.6875 194.875 C 185.75 193.9375 184.9375 193.8125 180.875 194.1875 L 176.125 194.5625 L 176.5625 192.4375 C 177.875 186 179.4375 180.5 180.375 179.0625 C 181.5 177.375 181.625 177.375 184.8125 180.1875 Z M 174.25 187.25 C 174 188.875 171.875 189.0625 169 187.75 L 166.5625 186.6875 L 169.5 186.25 C 171.125 186.0625 172.625 185.6875 172.875 185.4375 C 173.625 184.75 174.5 186 174.25 187.25 Z M 175.75 205.375 C 175.9375 205.5625 175.6875 207.0625 175.125 208.6875 C 173.6875 213.25 174.3125 214.625 178.875 216.9375 C 182.4375 218.75 184.9375 220.8125 185 222.125 C 185 222.4375 184.375 222.1875 183.625 221.625 C 181.125 219.875 176.3125 217.5 175.1875 217.5 C 174.5625 217.5 172.625 216.5 170.8125 215.25 C 167.1875 212.75 167.1875 213.3125 170.4375 207.625 C 171.6875 205.5625 172.375 205 173.6875 205 C 174.625 205 175.5625 205.1875 175.75 205.375 Z M 166.6875 208.25 C 166.1875 209.75 165.9375 210 165.75 209.1875 C 165.4375 207.75 166 206.25 166.8125 206.25 C 167.1875 206.25 167.125 207.0625 166.6875 208.25 Z M 154.0625 216.1875 C 157.1875 219.4375 155.5625 219.6875 151.75 216.5 C 150.3125 215.25 148.375 213.9375 147.625 213.5625 C 146.25 212.9375 146.25 212.8125 147.3125 212.4375 C 148.8125 211.875 151.0625 213.125 154.0625 216.1875 Z M 164.125 229.1875 C 165.375 231.8125 166.3125 237.375 165.5 237.625 C 165.25 237.75 168.3125 240.3125 172.3125 243.4375 C 181.9375 250.875 181.875 250.8125 180.3125 250.3125 C 175.8125 248.75 172 248 166.0625 247.5625 C 156.6875 246.875 156.75 247.0625 159.25 237.625 C 161.25 230.0625 162.25 226.875 162.75 226.875 C 162.875 226.875 163.5 227.9375 164.125 229.1875 Z M 155 262.3125 C 155 264.3125 155.375 266.4375 155.875 267 C 156.9375 268.5 159.875 269.5 161.8125 269.0625 C 163 268.875 165.375 269.8125 170.9375 272.8125 L 178.4375 276.875 L 172.5 276.5625 C 169.25 276.375 165.375 275.875 164 275.5625 C 161.875 275 161.0625 275.0625 159.4375 275.9375 C 158.3125 276.5 157.3125 277.3125 157.125 277.75 C 156.875 278.5 156.25 278.5 153.625 277.8125 C 151.9375 277.3125 150.375 276.8125 150.25 276.6875 C 149.8125 276.25 153.9375 258.75 154.5 258.75 C 154.75 258.75 155 260.375 155 262.3125 Z M 151.75 290.9375 C 153.4375 292.5 155 294.5 155.25 295.4375 C 156 298.8125 157.625 299.8125 170.0625 304.375 C 176.75 306.875 182.625 309.125 183.125 309.375 C 183.6875 309.6875 179.9375 309.9375 174.0625 309.9375 C 168.5625 309.9375 163.125 310.1875 161.9375 310.5625 C 160.375 311.0625 158.875 311 156 310.3125 C 153.875 309.8125 150.9375 309.1875 149.375 308.875 L 146.5625 308.375 L 146.0625 304.6875 C 145.125 297.8125 146.3125 288.125 148.0625 288.125 C 148.375 288.125 150 289.375 151.75 290.9375 Z M 151.6875 322.5625 C 154.5 324.3125 161.4375 332.5625 160.6875 333.3125 C 160.375 333.625 160.375 334.6875 160.6875 335.8125 C 161 336.875 161.1875 337.8125 161.0625 337.875 C 161 337.9375 151.875 338.5625 151.875 338.4375 C 151.875 338.4375 151.1875 334.9375 150.3125 330.625 C 148.1875 320 148.125 320.375 151.6875 322.5625 Z M 161.5 356.5625 C 162.8125 357.75 164.375 358.875 165.0625 359.0625 C 165.6875 359.3125 166.25 359.6875 166.25 360 C 166.25 360.3125 167.125 361.5625 168.1875 362.8125 C 169.5625 364.375 169.875 365 169.1875 365 C 168.625 365 168 365.25 167.8125 365.625 C 167.5 366.125 169.1875 372.6875 170.4375 376 C 170.9375 377.3125 167.5625 377.125 163.5 375.5625 C 160.25 374.375 160 374.125 158.8125 371 C 157.125 366.5 155.8125 361.5 155.3125 358 C 155 355.5625 155.125 355.0625 156.0625 354.8125 C 158.4375 354.1875 159.1875 354.4375 161.5 356.5625 Z M 169.0625 390.625 C 170.875 392.375 180.4375 396.875 182.375 396.875 C 183.8125 396.875 182.5625 398 180.5625 398.4375 C 178.4375 398.9375 178.4375 398.5625 181.1875 405.625 C 182.1875 408.1875 183.25 410.25 183.5625 410.1875 C 183.8125 410.125 184.5625 409.875 185.1875 409.625 C 186.25 409.25 186.3125 409.3125 185.5625 410.5625 C 183.625 413.625 177.25 411.3125 174.9375 406.6875 C 171.5625 400.125 166.375 388.75 166.75 388.75 C 166.9375 388.75 168 389.625 169.0625 390.625 Z M 188.8125 425.375 C 191.6875 425.8125 193.3125 426.6875 192.8125 427.5 C 192.625 427.75 193.75 430.6875 195.3125 434 C 197.1875 438.125 197.875 440.125 197.3125 440.3125 C 195.1875 440.9375 192.5625 441.125 190.6875 440.75 C 188.625 440.3125 188.5 440.0625 185.5625 432.1875 C 183.875 427.6875 182.5 423.875 182.5 423.5625 C 182.5 423.3125 183.3125 423.5 184.3125 424 C 185.3125 424.5625 187.3125 425.125 188.8125 425.375 Z M 195.75 452.625 C 199.1875 457.625 201.8125 459.375 205.5625 459.375 L 208.5 459.375 L 210.3125 463.5625 C 211.375 465.875 212.3125 468 212.375 468.25 C 212.5 468.5 211 468.75 209.0625 468.75 C 205.75 468.75 205.375 468.5625 202.4375 465.8125 C 200.6875 464.1875 198.375 461.3125 197.25 459.375 C 194.4375 454.625 191.8125 448.75 192.5 448.75 C 192.8125 448.75 194.25 450.5 195.75 452.625 Z M 218.0625 485.3125 C 218.875 486.5625 220.3125 488 221.25 488.5625 C 222.4375 489.25 223.8125 491.375 225.6875 495.5 C 228.1875 501.0625 228.3125 501.5 227.4375 503.0625 C 225.75 506 224.625 505.4375 223.1875 500.9375 C 221.75 496.5625 219.6875 492.8125 217.8125 491.25 C 217.1875 490.75 215.875 489.25 214.9375 487.875 C 213.5625 486 213.3125 485.25 213.8125 484.3125 C 214.75 482.5 216.375 482.875 218.0625 485.3125 Z M 229.875 518.0625 C 231.125 518.6875 232.75 519.875 233.4375 520.625 C 234.125 521.375 235.4375 522.375 236.3125 522.875 C 237.4375 523.4375 238.1875 524.5625 238.75 526.5625 C 239.4375 529.0625 239.4375 529.75 238.5625 531.625 C 237.6875 533.4375 237.1875 533.75 235.4375 533.75 C 233.625 533.75 229.375 532.6875 229.375 532.25 C 229.375 532.125 228.8125 529 228.125 525.25 C 226.375 515.6875 226.25 516.25 229.875 518.0625 Z M 237.75 545 C 238.8125 545.375 240 546.875 241.1875 549.3125 C 242.25 551.3125 243.75 553.5625 244.625 554.1875 C 245.8125 555.1875 246.1875 556.0625 246.3125 558.75 C 246.5 561.9375 246.4375 562.125 244.5 563 C 243.4375 563.5625 242.375 564.5 242.125 565.125 C 241.9375 565.75 241.375 566.25 240.8125 566.25 C 238.75 566.25 234.875 563.375 233.0625 560.5 L 231.125 557.5 L 232.125 553.5625 C 232.6875 551.375 233.125 548.4375 233.125 547 C 233.125 544.625 233.25 544.375 234.625 544.375 C 235.5 544.375 236.875 544.625 237.75 545 Z M 241.0625 580.125 C 241.4375 580.5625 242.0625 582.3125 242.5 584 C 242.9375 585.625 244 587.8125 244.875 588.8125 C 246.25 590.5 246.375 591 245.9375 594.8125 C 245.5625 598.375 245.25 599.1875 243.375 601 C 241.3125 603.0625 241.1875 603.125 239.1875 602.25 C 234.5625 600.3125 230.3125 593.125 229.75 586.0625 L 229.375 581.25 L 232.0625 581.25 C 233.5 581.1875 235.375 580.8125 236.25 580.3125 C 238.1875 579.1875 240.3125 579.125 241.0625 580.125 Z M 236.375 615.4375 C 238.125 617.375 240 620.6875 240 622 C 240 622.5 240.5625 623.9375 241.25 625.25 C 242.4375 627.625 242.4375 627.6875 241.1875 630.0625 C 240.1875 632.125 239.6875 632.5 237.9375 632.5 C 236.8125 632.5 235.3125 632.9375 234.625 633.4375 C 233.4375 634.25 233.1875 634.1875 231.75 632.625 C 229.125 629.8125 228.75 628.5 228.75 621.9375 C 228.75 616.1875 228.875 615.625 230.125 614.75 C 232.25 613.25 234.5625 613.5 236.375 615.4375 Z M 226.1875 647 C 226.4375 647.8125 226.875 649.25 227.125 650.25 C 227.5 651.875 227.4375 652 226.5625 651.25 C 225.75 650.5625 225 651.125 220.9375 655.375 L 216.3125 660.3125 L 215.0625 658.75 C 212.8125 655.9375 213 655.25 216.8125 652.875 C 218.75 651.6875 221.4375 649.5625 222.8125 648.1875 C 224.125 646.75 225.375 645.625 225.4375 645.625 C 225.5625 645.625 225.875 646.25 226.1875 647 Z M 226.1875 647 "/>
</g>
</svg>
